<svg xmlns="http://www.w3.org/2000/svg" xmlns:xlink="http://www.w3.org/1999/xlink" x="0" y="0" width="246.16250610351562" height="151.10000610351562" style="
        width:246.16250610351562px;
        height:151.10000610351562px;
        background: transparent;
        fill: none;
">
        
        
        <svg xmlns="http://www.w3.org/2000/svg" class="role-diagram-draw-area"><g class="shapes-region" style="stroke: black; fill: none;"><g class="composite-shape axis2d" style="stroke-width: 1; stroke: rgb(164, 198, 243); stroke-opacity: 1;"><path class="real" d=" M-15.1,125.8 L224.1,125.8 M9.8,22.3 L9.8,148.2"/><path d=" M217.1,120.8 L224.1,125.8 L217.1,130.8"/><path d=" M4.8,29.3 L9.8,22.3 L14.8,29.3"/></g><g class="arrow-line"><path class="connection real" stroke-dasharray="" d="  M35.2,149.15 C71.99,75.32 119.19,69.24 225.21,60.56" style="stroke: rgb(164, 198, 243); stroke-opacity: 1; stroke-width: 2; fill: none; fill-opacity: 1;"/><g stroke="none" fill="rgb(164,198,243)" fill-opacity="1" transform="matrix(0.42877746511979115,-0.9034101424078912,0.9034101424078912,0.42877746511979115,32.9375,153.79999542236328)" style="stroke: none; fill: rgb(164, 198, 243); stroke-width: 2;"><path d=" M4.64,-2.23 L0,0 L4.64,2.23 Z"/></g><g stroke="none" fill="rgb(164,198,243)" fill-opacity="1" transform="matrix(-0.9966943478093029,0.08124270456470806,-0.08124270456470806,-0.9966943478093029,228.43749999999997,60.29999542236328)" style="stroke: none; fill: rgb(164, 198, 243); stroke-width: 2;"><path d=" M4.64,-2.23 L0,0 L4.64,2.23 Z"/></g></g><g/></g><g/><g/><g/></svg>
        <svg xmlns="http://www.w3.org/2000/svg" xmlns:xlink="http://www.w3.org/1999/xlink" width="244.5625" height="149.5" style="width:244.5625px;height:149.5px;font-family:ThickerLm-Math, ThickerLm, Asana-Math, Asana;background:transparent;"><g><g><g><g transform="matrix(1,0,0,1,6.637504577636719,15.799995422363281)"><path transform="matrix(0.013,0,0,-0.013,0,0)" d="M148 -88C148 -53 116 -48 106 -48C81 -48 46 -66 46 -118C46 -171 92 -210 156 -210C262 -210 366 -117 394 -2L490 380C494 394 494 397 494 404C494 425 478 436 461 436C449 436 432 429 422 412C419 407 412 375 408 357C386 270 365 184 343 97C339 83 297 16 234 16C187 16 176 55 176 92C176 137 193 198 227 286C243 327 248 339 248 360C248 407 214 446 161 446C61 446 24 298 24 288C24 273 41 274 41 274C53 274 56 279 61 295C88 389 127 416 158 416C165 416 178 417 178 388C178 364 169 339 162 320C122 214 104 156 104 108C104 16 170 -16 230 -16C265 -16 297 -2 323 20C311 -26 298 -70 262 -117C236 -150 200 -178 156 -178C143 -178 106 -176 87 -145C118 -144 148 -124 148 -88Z" stroke="rgb(164,198,243)" stroke-opacity="1" stroke-width="8" fill="rgb(164,198,243)" fill-opacity="1"></path></g></g></g></g><g><g><g><g transform="matrix(1,0,0,1,229.30001831054688,127.79999542236328)"><path transform="matrix(0.013,0,0,-0.013,0,0)" d="M532 376C532 432 468 446 434 446C380 446 346 403 330 376C303 435 250 446 221 446C113 446 56 315 56 288C56 273 72 274 72 274C82 274 87 278 89 288C123 392 187 416 219 416C236 416 268 408 268 353C268 323 252 256 215 116C199 55 165 16 124 16C119 16 104 15 86 23C108 32 126 51 126 78C126 108 100 118 84 118C51 118 24 89 24 55C24 5 79 -16 123 -16C180 -16 215 33 227 54C242 19 278 -16 336 -16C443 -16 500 116 500 143C500 157 486 158 484 158C473 158 469 150 467 143C435 38 368 16 338 16C302 16 288 44 288 77C288 98 293 120 304 164L338 301C344 328 367 416 433 416C437 416 453 415 471 408C447 399 430 376 430 353C430 335 443 314 473 314C497 314 532 333 532 376Z" stroke="rgb(164,198,243)" stroke-opacity="1" stroke-width="8" fill="rgb(164,198,243)" fill-opacity="1"></path></g></g></g></g><g><g><g><g transform="matrix(1,0,0,1,45.400001525878906,140.36249542236328)"><path transform="matrix(0.013,0,0,-0.013,0,0)" d="M419 -4C421 -4 424 -3 424 0L424 31C424 33 422 36 419 36L387 36C297 36 298 45 298 79L298 640C298 665 296 670 271 670C270 670 269 670 268 669C208 607 121 606 89 606C87 606 84 605 84 602L84 571C84 569 86 566 89 566C109 566 163 566 216 590L216 79C216 46 217 36 127 36L95 36C93 36 90 34 90 31L90 0C90 -2 92 -4 95 -4C130 -1 217 -2 257 -2C297 -2 384 -1 419 -4Z" stroke="rgb(164,198,243)" stroke-opacity="1" stroke-width="8" fill="rgb(164,198,243)" fill-opacity="1"></path></g></g></g></g><g><g><g><g transform="matrix(1,0,0,1,184.90000915527344,54.962501525878906)"><path transform="matrix(0.013,0,0,-0.013,0,0)" d="M148 -88C148 -53 116 -48 106 -48C81 -48 46 -66 46 -118C46 -171 92 -210 156 -210C262 -210 366 -117 394 -2L490 380C494 394 494 397 494 404C494 425 478 436 461 436C449 436 432 429 422 412C419 407 412 375 408 357C386 270 365 184 343 97C339 83 297 16 234 16C187 16 176 55 176 92C176 137 193 198 227 286C243 327 248 339 248 360C248 407 214 446 161 446C61 446 24 298 24 288C24 273 41 274 41 274C53 274 56 279 61 295C88 389 127 416 158 416C165 416 178 417 178 388C178 364 169 339 162 320C122 214 104 156 104 108C104 16 170 -16 230 -16C265 -16 297 -2 323 20C311 -26 298 -70 262 -117C236 -150 200 -178 156 -178C143 -178 106 -176 87 -145C118 -144 148 -124 148 -88Z" stroke="rgb(164,198,243)" stroke-opacity="1" stroke-width="8" fill="rgb(164,198,243)" fill-opacity="1"></path></g></g><g><g transform="matrix(1,0,0,1,195.17501831054688,54.962501525878906)"><path transform="matrix(0.013,0,0,-0.013,0,0)" d="M726 153C726 166 715 178 702 178L76 178C63 178 52 166 52 153C52 140 63 128 76 128L702 128C715 128 726 140 726 153ZM726 347C726 360 715 372 702 372L76 372C63 372 52 360 52 347C52 334 63 322 76 322L702 322C715 322 726 334 726 347Z" stroke="rgb(164,198,243)" stroke-opacity="1" stroke-width="8" fill="rgb(164,198,243)" fill-opacity="1"></path></g></g><g><g><g transform="matrix(1,0,0,1,209.20001220703125,54.962501525878906)"><path transform="matrix(0.013,0,0,-0.013,0,0)" d="M144 -2L255 -4C257 -4 260 -3 260 0L260 31C260 33 258 36 255 36C187 36 182 34 182 76L182 694C182 697 180 698 177 698L33 687C31 687 28 685 28 683L28 652C28 650 30 648 33 648C102 648 106 643 106 596L106 76C106 34 101 36 33 36C31 36 28 34 28 31L28 0C28 -2 30 -4 33 -4ZM423 -2L535 -4C537 -4 540 -3 540 0L540 31C540 33 538 36 535 36C467 36 462 34 462 76L462 260C462 362 531 416 592 416C651 416 662 366 662 309L662 76C662 34 656 36 588 36C586 36 584 34 584 31L584 0C584 -2 585 -4 588 -4L701 -2L813 -4C815 -4 818 -3 818 0L818 31C818 33 816 36 813 36C759 36 741 36 740 61L740 252C740 338 739 371 707 408C692 426 658 446 599 446C531 446 485 410 456 356L456 442C456 445 454 446 451 446L310 435C308 435 306 433 306 431L306 400C306 398 307 396 310 396C379 396 384 391 384 344L384 76C384 34 378 36 310 36C308 36 306 34 306 31L306 0C306 -2 307 -4 310 -4Z" stroke="rgb(164,198,243)" stroke-opacity="1" stroke-width="8" fill="rgb(164,198,243)" fill-opacity="1"></path></g></g></g><g><g transform="matrix(1,0,0,1,222.64999389648438,54.962501525878906)"><path transform="matrix(0.013,0,0,-0.013,0,0)" d="M532 376C532 432 468 446 434 446C380 446 346 403 330 376C303 435 250 446 221 446C113 446 56 315 56 288C56 273 72 274 72 274C82 274 87 278 89 288C123 392 187 416 219 416C236 416 268 408 268 353C268 323 252 256 215 116C199 55 165 16 124 16C119 16 104 15 86 23C108 32 126 51 126 78C126 108 100 118 84 118C51 118 24 89 24 55C24 5 79 -16 123 -16C180 -16 215 33 227 54C242 19 278 -16 336 -16C443 -16 500 116 500 143C500 157 486 158 484 158C473 158 469 150 467 143C435 38 368 16 338 16C302 16 288 44 288 77C288 98 293 120 304 164L338 301C344 328 367 416 433 416C437 416 453 415 471 408C447 399 430 376 430 353C430 335 443 314 473 314C497 314 532 333 532 376Z" stroke="rgb(164,198,243)" stroke-opacity="1" stroke-width="8" fill="rgb(164,198,243)" fill-opacity="1"></path></g></g></g></g></svg>
</svg>
