<svg xmlns="http://www.w3.org/2000/svg" xmlns:xlink="http://www.w3.org/1999/xlink" x="0" y="0" width="402.5" height="174" style="
        width:402.5px;
        height:174px;
        background: transparent;
        fill: none;
">
        
        
        <svg xmlns="http://www.w3.org/2000/svg" class="role-diagram-draw-area"><g class="shapes-region" style="stroke: black; fill: none;"><g class="composite-shape"><path class="real" d=" M3,115.9 C3,87.68 18.27,64.8 37.1,64.8 C55.93,64.8 71.2,87.68 71.2,115.9 C71.2,144.12 55.93,167 37.1,167 C18.27,167 3,144.12 3,115.9 Z" style="stroke-width: 2; stroke: rgb(238, 140, 153); fill: none; fill-opacity: 1; stroke-opacity: 1;"/></g><g class="composite-shape"><path class="real" d=" M93.1,115.9 C93.1,87.68 108.37,64.8 127.2,64.8 C146.03,64.8 161.3,87.68 161.3,115.9 C161.3,144.12 146.03,167 127.2,167 C108.37,167 93.1,144.12 93.1,115.9 Z" style="stroke-width: 2; stroke: rgb(220, 165, 235); stroke-opacity: 1; fill: none; fill-opacity: 1;"/></g><g class="arrow-line"><path class="connection real" stroke-dasharray="" d="  M53,90.9 L118,92.55" style="stroke: rgb(184, 233, 134); stroke-width: 1; fill: none; fill-opacity: 1; stroke-opacity: 1;"/><g stroke="rgb(184,233,134)" transform="matrix(-0.9996797880281931,-0.025304572865529295,0.025304572865529295,-0.9996797880281931,119.99999999999999,92.59999847412108)" style="stroke: rgb(184, 233, 134); stroke-width: 1;" stroke-opacity="1"><path d=" M10.93,-3.29 Q4.96,-0.45 0,0 Q4.96,0.45 10.93,3.29"/></g></g><g class="arrow-line"><path class="connection real" stroke-dasharray="" d="  M49.5,116.4 L114.5,118.05" style="stroke: rgb(184, 233, 134); stroke-opacity: 1; stroke-width: 1; fill: none; fill-opacity: 1;"/><g stroke="rgb(184,233,134)" stroke-opacity="1" transform="matrix(-0.9996797880281931,-0.025304572865529295,0.025304572865529295,-0.9996797880281931,116.50000000000001,118.09999847412108)" style="stroke: rgb(184, 233, 134); stroke-width: 1;"><path d=" M10.93,-3.29 Q4.96,-0.45 0,0 Q4.96,0.45 10.93,3.29"/></g></g><g class="arrow-line"><path class="connection real" stroke-dasharray="" d="  M48,141.9 L113,143.55" style="stroke: rgb(184, 233, 134); stroke-opacity: 1; stroke-width: 1; fill: none; fill-opacity: 1;"/><g stroke="rgb(184,233,134)" stroke-opacity="1" transform="matrix(-0.9996797880281931,-0.025304572865529295,0.025304572865529295,-0.9996797880281931,115,143.59999847412112)" style="stroke: rgb(184, 233, 134); stroke-width: 1;"><path d=" M10.93,-3.29 Q4.96,-0.45 0,0 Q4.96,0.45 10.93,3.29"/></g></g><g class="composite-shape"><path class="real" d=" M237,115.7 C237,87.48 252.27,64.6 271.1,64.6 C289.93,64.6 305.2,87.48 305.2,115.7 C305.2,143.92 289.93,166.8 271.1,166.8 C252.27,166.8 237,143.92 237,115.7 Z" style="stroke-width: 2; stroke: rgb(238, 140, 153); stroke-opacity: 1; fill: none; fill-opacity: 1;"/></g><g class="composite-shape"><path class="real" d=" M327.1,115.7 C327.1,87.48 342.37,64.6 361.2,64.6 C380.03,64.6 395.3,87.48 395.3,115.7 C395.3,143.92 380.03,166.8 361.2,166.8 C342.37,166.8 327.1,143.92 327.1,115.7 Z" style="stroke-width: 2; stroke: rgb(220, 165, 235); stroke-opacity: 1; fill: none; fill-opacity: 1;"/></g><g class="arrow-line"><path class="connection real" stroke-dasharray="" d="  M287,90.7 L352,92.35" style="stroke: rgb(184, 233, 134); stroke-opacity: 1; stroke-width: 1; fill: none; fill-opacity: 1;"/><g stroke="rgb(184,233,134)" stroke-opacity="1" transform="matrix(-0.9996797880281931,-0.025304572865529295,0.025304572865529295,-0.9996797880281931,354,92.40000152587889)" style="stroke: rgb(184, 233, 134); stroke-width: 1;"><path d=" M10.93,-3.29 Q4.96,-0.45 0,0 Q4.96,0.45 10.93,3.29"/></g></g><g class="arrow-line"><path class="connection real" stroke-dasharray="" d="  M283.5,116.2 L348.5,117.85" style="stroke: rgb(184, 233, 134); stroke-opacity: 1; stroke-width: 1; fill: none; fill-opacity: 1;"/><g stroke="rgb(184,233,134)" stroke-opacity="1" transform="matrix(-0.9996797880281931,-0.025304572865529295,0.025304572865529295,-0.9996797880281931,350.5,117.9000015258789)" style="stroke: rgb(184, 233, 134); stroke-width: 1;"><path d=" M10.93,-3.29 Q4.96,-0.45 0,0 Q4.96,0.45 10.93,3.29"/></g></g><g class="arrow-line"><path class="connection real" stroke-dasharray="" d="  M282,141.7 L349.48,101.62" style="stroke: rgb(184, 233, 134); stroke-opacity: 1; stroke-width: 1; fill: none; fill-opacity: 1;"/><g stroke="rgb(184,233,134)" stroke-opacity="1" transform="matrix(-0.8597631519521239,0.5106929826670316,-0.5106929826670316,-0.8597631519521239,351.20000457763666,100.5999984741211)" style="stroke: rgb(184, 233, 134); stroke-width: 1;"><path d=" M10.93,-3.29 Q4.96,-0.45 0,0 Q4.96,0.45 10.93,3.29"/></g></g><g/></g><g/><g/><g/></svg>
        <svg xmlns="http://www.w3.org/2000/svg" xmlns:xlink="http://www.w3.org/1999/xlink" width="400.8999938964844" height="172.40000915527344" style="width:400.8999938964844px;height:172.40000915527344px;font-family:ThickerLm-Math, ThickerLm, Asana-Math, Asana;background:transparent;"><g><g><g><g transform="matrix(1,0,0,1,41.29999542236328,14.600006103515625)"><path transform="matrix(0.012,0,0,-0.012,0,0)" d="M39 0C77 3 178 3 222 3C271 3 380 3 424 0L424 47L289 47L289 317L339 317C435 317 444 274 444 200L491 200L491 481L444 481C444 407 436 364 339 364L289 364L289 633L429 633C590 633 613 556 628 439L675 439L644 680L39 680L39 633L147 633L147 47L39 47ZM672 395C734 395 741 395 741 356L741 123C741 16 822 -6 921 -6C947 -6 1019 -6 1065 72L1065 -6L1242 0L1242 47C1180 47 1173 47 1173 86L1173 450L990 442L990 395C1052 395 1059 395 1059 356L1059 165C1059 83 1008 30 935 30C858 30 855 55 855 109L855 450L672 442ZM1310 0C1338 1 1398 3 1436 3C1475 3 1534 1 1562 0L1562 47L1493 47L1493 256C1493 365 1579 414 1642 414C1676 414 1697 393 1697 317L1697 47L1628 47L1628 0C1656 1 1716 3 1754 3C1793 3 1852 1 1880 0L1880 47L1811 47L1811 306C1811 411 1757 450 1657 450C1561 450 1508 393 1482 342L1482 450L1310 442L1310 395C1372 395 1379 395 1379 356L1379 47L1310 47ZM1935 -75C1935 -126 1990 -201 2190 -201C2367 -201 2445 -142 2445 -72C2445 -42 2437 21 2370 55C2314 83 2254 83 2158 83C2132 83 2086 83 2081 84C2037 91 2026 129 2026 147C2026 157 2030 172 2036 180C2082 156 2133 154 2158 154C2302 154 2357 232 2357 302C2357 349 2332 382 2317 398C2347 414 2368 416 2379 417C2377 412 2375 403 2375 397C2375 372 2392 354 2418 354C2444 354 2461 373 2461 397C2461 420 2444 455 2398 455C2383 455 2336 452 2292 417C2274 429 2232 450 2158 450C2014 450 1959 372 1959 302C1959 261 1979 220 2011 197C1983 162 1977 129 1977 108C1977 93 1981 44 2021 12C2008 9 1935 -12 1935 -75ZM2021 -73C2021 -13 2084 -13 2098 -13L2215 -13C2246 -13 2359 -13 2359 -75C2359 -111 2320 -165 2190 -165C2070 -165 2021 -119 2021 -73ZM2070 302C2070 347 2070 414 2158 414C2246 414 2246 347 2246 302C2246 257 2246 190 2158 190C2070 190 2070 257 2070 302ZM2516 22C2516 3 2516 -6 2534 -6C2541 -6 2543 -6 2564 9C2565 9 2587 24 2590 26C2636 -6 2688 -6 2708 -6C2739 -6 2893 -6 2893 140C2893 183 2873 218 2838 246C2799 275 2767 281 2689 294C2652 301 2587 312 2587 359C2587 421 2680 421 2699 421C2774 421 2812 392 2817 337C2818 322 2819 317 2840 317C2864 317 2864 322 2864 345L2864 425C2864 444 2864 453 2846 453C2842 453 2840 453 2801 434C2775 447 2740 453 2700 453C2670 453 2516 453 2516 322C2516 282 2536 255 2556 238C2596 203 2634 197 2711 183C2747 177 2822 164 2822 105C2822 30 2730 30 2708 30C2602 30 2576 103 2564 146C2559 160 2554 160 2540 160C2516 160 2516 154 2516 131ZM3009 617C3009 574 3043 539 3087 539C3129 539 3165 574 3165 617C3165 660 3129 695 3087 695C3043 695 3009 660 3009 617ZM2978 0C3009 1 3058 3 3100 3C3130 3 3181 1 3217 0L3217 47L3155 47L3155 450L2981 442L2981 395C3040 395 3047 395 3047 356L3047 47L2978 47ZM3672 0L4136 0C4302 0 4386 88 4386 186C4386 282 4300 349 4181 358C4289 377 4354 437 4354 514C4354 606 4267 686 4106 686L3672 686L3672 639L3780 639L3780 47L3672 47ZM3911 47L3911 339L4105 339C4125 339 4172 339 4206 296C4239 254 4239 198 4239 187C4239 175 4239 47 4095 47ZM3911 375L3911 639L4093 639C4194 639 4212 560 4212 514C4212 437 4164 375 4067 375ZM4548 617C4548 571 4586 539 4626 539C4669 539 4703 574 4703 617C4703 662 4667 694 4626 694C4580 694 4548 657 4548 617ZM4730 -109C4730 -163 4787 -200 4867 -200C4931 -200 5045 -167 5045 -34L5045 450L4860 442L4860 394L4872 394C4925 394 4935 389 4936 360L4936 -32C4936 -47 4936 -61 4934 -75C4930 -108 4914 -163 4866 -163C4858 -163 4847 -162 4831 -159C4835 -155 4855 -139 4855 -109C4855 -71 4825 -46 4793 -46C4759 -46 4730 -71 4730 -109ZM4889 617C4889 578 4920 539 4967 539C5013 539 5045 577 5045 616C5045 661 5008 694 4967 694C4929 694 4889 664 4889 617ZM4517 0C4548 1 4597 3 4639 3C4669 3 4720 1 4756 0L4756 47L4694 47L4694 450L4520 442L4520 395C4579 395 4586 395 4586 356L4586 47L4517 47ZM5154 225C5154 91 5254 -6 5415 -6C5573 -6 5616 100 5616 117C5616 135 5597 135 5592 135C5575 135 5573 130 5567 114C5546 66 5489 34 5424 34C5283 34 5282 167 5282 218L5584 218C5606 218 5616 218 5616 245C5616 276 5610 349 5560 399C5523 435 5470 453 5401 453C5241 453 5154 350 5154 225ZM5282 251C5284 290 5285 332 5306 365C5332 405 5372 417 5401 417C5518 417 5520 286 5521 251ZM5686 0C5723 1 5770 3 5806 3C5843 3 5891 1 5927 0L5927 47L5858 47L5858 174C5887 197 5895 203 5915 217L6016 91C6025 79 6041 59 6041 56C6041 47 6023 47 6010 47L6010 0C6040 2 6127 3 6132 3C6168 3 6202 2 6236 0L6236 47L6219 47C6176 47 6173 51 6160 67L5991 278L6121 379C6135 390 6144 397 6211 397L6211 444C6184 441 6159 441 6133 441C6106 441 6041 443 6018 444L6018 397C6041 397 6044 394 6052 386L5863 237L5863 694L5686 686L5686 639C5748 639 5755 639 5755 600L5755 47L5686 47ZM6276 397L6358 397L6358 123C6358 16 6445 -6 6516 -6C6592 -6 6637 51 6637 124L6637 177L6590 177L6590 126C6590 58 6558 34 6530 34C6472 34 6472 98 6472 121L6472 397L6618 397L6618 444L6472 444L6472 635L6425 635C6424 535 6375 436 6276 433ZM6780 617C6780 574 6814 539 6858 539C6900 539 6936 574 6936 617C6936 660 6900 695 6858 695C6814 695 6780 660 6780 617ZM6749 0C6780 1 6829 3 6871 3C6901 3 6952 1 6988 0L6988 47L6926 47L6926 450L6752 442L6752 395C6811 395 6818 395 6818 356L6818 47L6749 47ZM7063 397L7138 397L7138 47L7069 47L7069 0C7104 1 7149 3 7195 3C7233 3 7297 3 7333 0L7333 47L7246 47L7246 397L7361 397L7361 444L7240 444L7240 545C7240 655 7316 664 7341 664C7346 664 7351 664 7358 662C7343 651 7335 632 7335 613C7335 570 7370 551 7396 551C7426 551 7458 572 7458 613C7458 655 7422 700 7344 700C7246 700 7138 658 7138 545L7138 444L7063 444Z" stroke="rgb(164,198,243)" stroke-opacity="1" stroke-width="8" fill="rgb(164,198,243)" fill-opacity="1"></path></g></g></g></g><g><g><g><g transform="matrix(1,0,0,1,25.800003051757812,54.30000305175781)"><path transform="matrix(0.013,0,0,-0.013,0,0)" d="M712 467C712 419 692 256 608 147C580 111 502 36 381 36L268 36C254 36 253 35 247 36C237 38 238 36 238 42C238 45 237 46 242 64L379 613C388 647 387 648 429 648L536 648C632 648 712 596 712 467ZM808 430C808 573 722 688 569 688L233 688C215 688 198 687 198 664C198 647 214 648 232 648C245 648 263 647 275 646C291 644 292 642 292 634C292 631 292 628 289 616L155 79C145 42 147 36 68 36C52 36 36 35 36 12C36 -5 51 -4 68 -4L399 -4C610 -4 808 209 808 430Z" stroke="rgb(238,140,153)" stroke-opacity="1" stroke-width="8" fill="rgb(238,140,153)" fill-opacity="1"></path></g></g><g><g><g><g><g transform="matrix(1,0,0,1,36.962501525878906,56.6)"><path transform="matrix(0.0091,0,0,-0.0091,0,0)" d="M556 636C556 686 507 710 465 710C429 710 365 690 334 589C328 567 325 560 301 436L236 436C218 436 202 435 202 412C202 395 217 396 234 396L295 396L221 6C203 -93 185 -178 138 -178C135 -178 117 -178 101 -168C140 -160 150 -127 150 -111C150 -85 129 -72 108 -72C80 -72 48 -95 48 -136C48 -185 96 -210 138 -210C196 -210 237 -148 255 -110C287 -46 310 75 311 82L371 396L453 396C472 396 488 396 488 420C488 436 471 436 456 436L378 435C388 487 387 488 398 544C402 565 417 637 422 647C431 665 446 678 465 678C468 678 486 679 503 668C466 659 456 627 456 611C456 585 476 572 497 572C525 572 556 595 556 636Z" stroke="rgb(238,140,153)" stroke-opacity="1" stroke-width="8" fill="rgb(238,140,153)" fill-opacity="1"></path></g></g></g></g></g></g></g><g><g><g><g transform="matrix(1,0,0,1,120.79999542236328,54.30000305175781)"><path transform="matrix(0.013,0,0,-0.013,0,0)" d="M760 93C760 109 743 110 743 110C730 110 728 98 726 92C701 19 660 4 639 4C610 4 604 22 604 61C604 91 609 142 613 174C615 188 618 208 618 222C618 291 566 325 534 339C632 364 744 433 744 533C744 623 650 688 518 688L233 688C213 688 200 686 200 663C200 647 215 648 232 648C232 648 252 648 269 646C288 644 292 643 292 634C292 631 292 628 289 616L155 79C145 42 147 36 68 36C50 36 36 34 36 11C36 -5 55 -5 55 -5L181 -2L308 -4C316 -4 332 -3 332 20C332 36 317 36 300 36C260 36 240 37 240 49C240 54 241 58 242 65L308 326L423 326C511 326 528 273 528 240C528 226 520 195 514 172C507 144 498 107 498 86C498 -26 623 -26 635 -26C724 -26 760 77 760 93ZM642 553C642 520 626 452 588 414C563 389 511 358 422 358L316 357L379 613C385 637 387 645 403 647C411 648 444 648 464 648C536 648 642 647 642 553Z" stroke="rgb(220,165,235)" stroke-opacity="1" stroke-width="8" fill="rgb(220,165,235)" fill-opacity="1"></path></g></g><g><g><g><g><g transform="matrix(1,0,0,1,131.06250762939453,56.6)"><path transform="matrix(0.0091,0,0,-0.0091,0,0)" d="M556 636C556 686 507 710 465 710C429 710 365 690 334 589C328 567 325 560 301 436L236 436C218 436 202 435 202 412C202 395 217 396 234 396L295 396L221 6C203 -93 185 -178 138 -178C135 -178 117 -178 101 -168C140 -160 150 -127 150 -111C150 -85 129 -72 108 -72C80 -72 48 -95 48 -136C48 -185 96 -210 138 -210C196 -210 237 -148 255 -110C287 -46 310 75 311 82L371 396L453 396C472 396 488 396 488 420C488 436 471 436 456 436L378 435C388 487 387 488 398 544C402 565 417 637 422 647C431 665 446 678 465 678C468 678 486 679 503 668C466 659 456 627 456 611C456 585 476 572 497 572C525 572 556 595 556 636Z" stroke="rgb(220,165,235)" stroke-opacity="1" stroke-width="8" fill="rgb(220,165,235)" fill-opacity="1"></path></g></g></g></g></g></g></g><g><g><g><g transform="matrix(1,0,0,1,81.13750457763672,84.80000305175781)"><path transform="matrix(0.013,0,0,-0.013,0,0)" d="M556 636C556 686 507 710 465 710C429 710 365 690 334 589C328 567 325 560 301 436L236 436C218 436 202 435 202 412C202 395 217 396 234 396L295 396L221 6C203 -93 185 -178 138 -178C135 -178 117 -178 101 -168C140 -160 150 -127 150 -111C150 -85 129 -72 108 -72C80 -72 48 -95 48 -136C48 -185 96 -210 138 -210C196 -210 237 -148 255 -110C287 -46 310 75 311 82L371 396L453 396C472 396 488 396 488 420C488 436 471 436 456 436L378 435C388 487 387 488 398 544C402 565 417 637 422 647C431 665 446 678 465 678C468 678 486 679 503 668C466 659 456 627 456 611C456 585 476 572 497 572C525 572 556 595 556 636Z" stroke="rgb(184,233,134)" stroke-opacity="1" stroke-width="8" fill="rgb(184,233,134)" fill-opacity="1"></path></g></g></g></g><g><g><g><g transform="matrix(1,0,0,1,28.800003051757812,95.30000305175781)"><path transform="matrix(0.013,0,0,-0.013,0,0)" d="M726 250C726 263 715 274 702 274L76 274C63 274 52 263 52 250C52 237 63 226 76 226L702 226C715 226 726 237 726 250Z" stroke="rgb(238,140,153)" stroke-opacity="1" stroke-width="8" fill="rgb(238,140,153)" fill-opacity="1"></path></g></g><g><g transform="matrix(1,0,0,1,38.92499542236328,95.30000305175781)"><path transform="matrix(0.013,0,0,-0.013,0,0)" d="M419 -4C421 -4 424 -3 424 0L424 31C424 33 422 36 419 36L387 36C297 36 298 45 298 79L298 640C298 665 296 670 271 670C270 670 269 670 268 669C208 607 121 606 89 606C87 606 84 605 84 602L84 571C84 569 86 566 89 566C109 566 163 566 216 590L216 79C216 46 217 36 127 36L95 36C93 36 90 34 90 31L90 0C90 -2 92 -4 95 -4C130 -1 217 -2 257 -2C297 -2 384 -1 419 -4Z" stroke="rgb(238,140,153)" stroke-opacity="1" stroke-width="8" fill="rgb(238,140,153)" fill-opacity="1"></path></g></g></g></g><g><g><g><g transform="matrix(1,0,0,1,33.07499694824219,120.30000305175781)"><path transform="matrix(0.013,0,0,-0.013,0,0)" d="M372 332C372 257 373 190 362 126C347 33 292 4 249 4C212 4 155 28 137 122C126 181 126 273 126 332C126 396 126 462 134 515C153 631 225 640 249 640C280 640 344 623 363 526C373 471 372 395 372 332ZM464 320C464 400 459 481 424 556C377 654 293 670 250 670C189 670 114 644 72 549C40 479 34 400 34 320C34 245 38 154 80 77C124 -6 199 -26 249 -26C304 -26 382 -5 427 92C459 162 464 241 464 320Z" stroke="rgb(238,140,153)" stroke-opacity="1" stroke-width="8" fill="rgb(238,140,153)" fill-opacity="1"></path></g></g></g></g><g><g><g><g transform="matrix(1,0,0,1,32.57499694824219,147.8000030517578)"><path transform="matrix(0.013,0,0,-0.013,0,0)" d="M419 -4C421 -4 424 -3 424 0L424 31C424 33 422 36 419 36L387 36C297 36 298 45 298 79L298 640C298 665 296 670 271 670C270 670 269 670 268 669C208 607 121 606 89 606C87 606 84 605 84 602L84 571C84 569 86 566 89 566C109 566 163 566 216 590L216 79C216 46 217 36 127 36L95 36C93 36 90 34 90 31L90 0C90 -2 92 -4 95 -4C130 -1 217 -2 257 -2C297 -2 384 -1 419 -4Z" stroke="rgb(238,140,153)" stroke-opacity="1" stroke-width="8" fill="rgb(238,140,153)" fill-opacity="1"></path></g></g></g></g><g><g><g><g transform="matrix(1,0,0,1,123.07500457763672,97.60000610351562)"><path transform="matrix(0.013,0,0,-0.013,0,0)" d="M453 173C453 175 452 178 449 178L424 178C422 178 420 177 420 175C415 145 408 102 399 88C391 83 329 82 307 82L138 81L236 177C392 315 454 370 454 472C454 589 361 670 237 670C121 670 46 576 46 485C46 425 100 424 103 424C121 424 160 438 160 482C160 510 140 538 102 538L96 538C120 597 170 630 224 630C312 630 354 553 354 472C354 394 305 316 250 254L58 40C46 28 46 24 46 0C46 -2 47 -4 50 -4L421 -4C423 -4 425 -3 425 -1Z" stroke="rgb(220,165,235)" stroke-opacity="1" stroke-width="8" fill="rgb(220,165,235)" fill-opacity="1"></path></g></g></g></g><g><g><g><g transform="matrix(1,0,0,1,123.07500457763672,122.60002136230469)"><path transform="matrix(0.013,0,0,-0.013,0,0)" d="M162 348C162 333 175 332 191 332L235 332C313 332 350 268 350 171C350 37 283 10 241 10C201 10 133 26 97 77C129 77 158 99 158 137C158 176 129 198 98 198C72 198 38 182 38 135C38 40 134 -26 244 -26C368 -26 462 66 462 171C462 251 404 327 306 353C381 384 434 451 434 528C434 614 343 670 246 670C144 670 64 609 64 530C64 495 89 474 120 474C153 474 176 498 176 529C176 575 137 582 117 583C149 624 208 636 242 636C281 636 334 616 334 529C334 517 331 460 306 417C277 371 246 368 221 367C213 367 189 364 182 364C174 364 162 361 162 348Z" stroke="rgb(220,165,235)" stroke-opacity="1" stroke-width="8" fill="rgb(220,165,235)" fill-opacity="1"></path></g></g></g></g><g><g><g><g transform="matrix(1,0,0,1,122.57500457763672,150.1000213623047)"><path transform="matrix(0.013,0,0,-0.013,0,0)" d="M296 200L64 200L296 554ZM471 160C473 160 476 162 476 165L476 196C476 198 474 200 471 200L376 200L376 651C376 670 374 682 355 682C345 682 339 680 331 667L24 198L24 196L24 165C24 163 25 160 28 160L290 160L290 78C290 44 291 36 218 36L197 36C195 36 192 34 192 31L192 0C192 -3 194 -4 197 -4C238 -1 290 -2 332 -2C374 -2 427 -1 468 -4C471 -4 472 -3 472 0L472 31C472 33 471 36 468 36L447 36C374 36 376 44 376 78L376 160Z" stroke="rgb(220,165,235)" stroke-opacity="1" stroke-width="8" fill="rgb(220,165,235)" fill-opacity="1"></path></g></g></g></g><g><g><g><g transform="matrix(1,0,0,1,252.80001068115234,15.900009155273438)"><path transform="matrix(0.012,0,0,-0.012,0,0)" d="M39 0L503 0C669 0 753 88 753 186C753 282 667 349 548 358C656 377 721 437 721 514C721 606 634 686 473 686L39 686L39 639L147 639L147 47L39 47ZM278 47L278 339L472 339C492 339 539 339 573 296C606 254 606 198 606 187C606 175 606 47 462 47ZM278 375L278 639L460 639C561 639 579 560 579 514C579 437 531 375 434 375ZM863 395C925 395 932 395 932 356L932 123C932 16 1013 -6 1112 -6C1138 -6 1210 -6 1256 72L1256 -6L1433 0L1433 47C1371 47 1364 47 1364 86L1364 450L1181 442L1181 395C1243 395 1250 395 1250 356L1250 165C1250 83 1199 30 1126 30C1049 30 1046 55 1046 109L1046 450L863 442ZM1493 0C1530 1 1577 3 1613 3C1650 3 1698 1 1734 0L1734 47L1665 47L1665 174C1694 197 1702 203 1722 217L1823 91C1832 79 1848 59 1848 56C1848 47 1830 47 1817 47L1817 0C1847 2 1934 3 1939 3C1975 3 2009 2 2043 0L2043 47L2026 47C1983 47 1980 51 1967 67L1798 278L1928 379C1942 390 1951 397 2018 397L2018 444C1991 441 1966 441 1940 441C1913 441 1848 443 1825 444L1825 397C1848 397 1851 394 1859 386L1670 237L1670 694L1493 686L1493 639C1555 639 1562 639 1562 600L1562 47L1493 47ZM2062 108C2062 12 2186 -6 2255 -6C2335 -6 2382 35 2404 77C2404 46 2404 0 2508 0L2556 0C2576 0 2588 0 2588 24C2588 47 2575 47 2562 47C2501 48 2501 61 2501 84L2501 299C2501 388 2430 453 2281 453C2224 453 2102 449 2102 361C2102 317 2137 298 2164 298C2195 298 2227 319 2227 361C2227 391 2208 408 2205 410C2233 416 2265 417 2277 417C2352 417 2387 375 2387 299L2387 265C2316 262 2062 253 2062 108ZM2179 109C2179 217 2337 231 2387 234L2387 139C2387 43 2295 30 2270 30C2219 30 2179 65 2179 109ZM2634 0C2662 1 2722 3 2760 3C2799 3 2858 1 2886 0L2886 47L2817 47L2817 256C2817 365 2903 414 2966 414C3000 414 3021 393 3021 317L3021 47L2952 47L2952 0C2980 1 3040 3 3078 3C3117 3 3176 1 3204 0L3204 47L3135 47L3135 306C3135 411 3081 450 2981 450C2885 450 2832 393 2806 342L2806 450L2634 442L2634 395C2696 395 2703 395 2703 356L2703 47L2634 47ZM3649 0C3687 3 3788 3 3832 3C3881 3 3990 3 4034 0L4034 47L3899 47L3899 317L3949 317C4045 317 4054 274 4054 200L4101 200L4101 481L4054 481C4054 407 4046 364 3949 364L3899 364L3899 633L4039 633C4200 633 4223 556 4238 439L4285 439L4254 680L3649 680L3649 633L3757 633L3757 47L3649 47ZM4282 395C4344 395 4351 395 4351 356L4351 123C4351 16 4432 -6 4531 -6C4557 -6 4629 -6 4675 72L4675 -6L4852 0L4852 47C4790 47 4783 47 4783 86L4783 450L4600 442L4600 395C4662 395 4669 395 4669 356L4669 165C4669 83 4618 30 4545 30C4468 30 4465 55 4465 109L4465 450L4282 442ZM4920 0C4948 1 5008 3 5046 3C5085 3 5144 1 5172 0L5172 47L5103 47L5103 256C5103 365 5189 414 5252 414C5286 414 5307 393 5307 317L5307 47L5238 47L5238 0C5266 1 5326 3 5364 3C5403 3 5462 1 5490 0L5490 47L5421 47L5421 306C5421 411 5367 450 5267 450C5171 450 5118 393 5092 342L5092 450L4920 442L4920 395C4982 395 4989 395 4989 356L4989 47L4920 47ZM5545 -75C5545 -126 5600 -201 5800 -201C5977 -201 6055 -142 6055 -72C6055 -42 6047 21 5980 55C5924 83 5864 83 5768 83C5742 83 5696 83 5691 84C5647 91 5636 129 5636 147C5636 157 5640 172 5646 180C5692 156 5743 154 5768 154C5912 154 5967 232 5967 302C5967 349 5942 382 5927 398C5957 414 5978 416 5989 417C5987 412 5985 403 5985 397C5985 372 6002 354 6028 354C6054 354 6071 373 6071 397C6071 420 6054 455 6008 455C5993 455 5946 452 5902 417C5884 429 5842 450 5768 450C5624 450 5569 372 5569 302C5569 261 5589 220 5621 197C5593 162 5587 129 5587 108C5587 93 5591 44 5631 12C5618 9 5545 -12 5545 -75ZM5631 -73C5631 -13 5694 -13 5708 -13L5825 -13C5856 -13 5969 -13 5969 -75C5969 -111 5930 -165 5800 -165C5680 -165 5631 -119 5631 -73ZM5680 302C5680 347 5680 414 5768 414C5856 414 5856 347 5856 302C5856 257 5856 190 5768 190C5680 190 5680 257 5680 302ZM6126 22C6126 3 6126 -6 6144 -6C6151 -6 6153 -6 6174 9C6175 9 6197 24 6200 26C6246 -6 6298 -6 6318 -6C6349 -6 6503 -6 6503 140C6503 183 6483 218 6448 246C6409 275 6377 281 6299 294C6262 301 6197 312 6197 359C6197 421 6290 421 6309 421C6384 421 6422 392 6427 337C6428 322 6429 317 6450 317C6474 317 6474 322 6474 345L6474 425C6474 444 6474 453 6456 453C6452 453 6450 453 6411 434C6385 447 6350 453 6310 453C6280 453 6126 453 6126 322C6126 282 6146 255 6166 238C6206 203 6244 197 6321 183C6357 177 6432 164 6432 105C6432 30 6340 30 6318 30C6212 30 6186 103 6174 146C6169 160 6164 160 6150 160C6126 160 6126 154 6126 131ZM6619 617C6619 574 6653 539 6697 539C6739 539 6775 574 6775 617C6775 660 6739 695 6697 695C6653 695 6619 660 6619 617ZM6588 0C6619 1 6668 3 6710 3C6740 3 6791 1 6827 0L6827 47L6765 47L6765 450L6591 442L6591 395C6650 395 6657 395 6657 356L6657 47L6588 47ZM7282 0L7746 0C7912 0 7996 88 7996 186C7996 282 7910 349 7791 358C7899 377 7964 437 7964 514C7964 606 7877 686 7716 686L7282 686L7282 639L7390 639L7390 47L7282 47ZM7521 47L7521 339L7715 339C7735 339 7782 339 7816 296C7849 254 7849 198 7849 187C7849 175 7849 47 7705 47ZM7521 375L7521 639L7703 639C7804 639 7822 560 7822 514C7822 437 7774 375 7677 375ZM8158 617C8158 571 8196 539 8236 539C8279 539 8313 574 8313 617C8313 662 8277 694 8236 694C8190 694 8158 657 8158 617ZM8340 -109C8340 -163 8397 -200 8477 -200C8541 -200 8655 -167 8655 -34L8655 450L8470 442L8470 394L8482 394C8535 394 8545 389 8546 360L8546 -32C8546 -47 8546 -61 8544 -75C8540 -108 8524 -163 8476 -163C8468 -163 8457 -162 8441 -159C8445 -155 8465 -139 8465 -109C8465 -71 8435 -46 8403 -46C8369 -46 8340 -71 8340 -109ZM8499 617C8499 578 8530 539 8577 539C8623 539 8655 577 8655 616C8655 661 8618 694 8577 694C8539 694 8499 664 8499 617ZM8127 0C8158 1 8207 3 8249 3C8279 3 8330 1 8366 0L8366 47L8304 47L8304 450L8130 442L8130 395C8189 395 8196 395 8196 356L8196 47L8127 47ZM8764 225C8764 91 8864 -6 9025 -6C9183 -6 9226 100 9226 117C9226 135 9207 135 9202 135C9185 135 9183 130 9177 114C9156 66 9099 34 9034 34C8893 34 8892 167 8892 218L9194 218C9216 218 9226 218 9226 245C9226 276 9220 349 9170 399C9133 435 9080 453 9011 453C8851 453 8764 350 8764 225ZM8892 251C8894 290 8895 332 8916 365C8942 405 8982 417 9011 417C9128 417 9130 286 9131 251ZM9296 0C9333 1 9380 3 9416 3C9453 3 9501 1 9537 0L9537 47L9468 47L9468 174C9497 197 9505 203 9525 217L9626 91C9635 79 9651 59 9651 56C9651 47 9633 47 9620 47L9620 0C9650 2 9737 3 9742 3C9778 3 9812 2 9846 0L9846 47L9829 47C9786 47 9783 51 9770 67L9601 278L9731 379C9745 390 9754 397 9821 397L9821 444C9794 441 9769 441 9743 441C9716 441 9651 443 9628 444L9628 397C9651 397 9654 394 9662 386L9473 237L9473 694L9296 686L9296 639C9358 639 9365 639 9365 600L9365 47L9296 47ZM9886 397L9968 397L9968 123C9968 16 10055 -6 10126 -6C10202 -6 10247 51 10247 124L10247 177L10200 177L10200 126C10200 58 10168 34 10140 34C10082 34 10082 98 10082 121L10082 397L10228 397L10228 444L10082 444L10082 635L10035 635C10034 535 9985 436 9886 433ZM10390 617C10390 574 10424 539 10468 539C10510 539 10546 574 10546 617C10546 660 10510 695 10468 695C10424 695 10390 660 10390 617ZM10359 0C10390 1 10439 3 10481 3C10511 3 10562 1 10598 0L10598 47L10536 47L10536 450L10362 442L10362 395C10421 395 10428 395 10428 356L10428 47L10359 47ZM10673 397L10748 397L10748 47L10679 47L10679 0C10714 1 10759 3 10805 3C10843 3 10907 3 10943 0L10943 47L10856 47L10856 397L10971 397L10971 444L10850 444L10850 545C10850 655 10926 664 10951 664C10956 664 10961 664 10968 662C10953 651 10945 632 10945 613C10945 570 10980 551 11006 551C11036 551 11068 572 11068 613C11068 655 11032 700 10954 700C10856 700 10748 658 10748 545L10748 444L10673 444Z" stroke="rgb(164,198,243)" stroke-opacity="1" stroke-width="8" fill="rgb(164,198,243)" fill-opacity="1"></path></g></g></g></g><g><g><g><g transform="matrix(1,0,0,1,259.80001068115234,54.100006103515625)"><path transform="matrix(0.013,0,0,-0.013,0,0)" d="M712 467C712 419 692 256 608 147C580 111 502 36 381 36L268 36C254 36 253 35 247 36C237 38 238 36 238 42C238 45 237 46 242 64L379 613C388 647 387 648 429 648L536 648C632 648 712 596 712 467ZM808 430C808 573 722 688 569 688L233 688C215 688 198 687 198 664C198 647 214 648 232 648C245 648 263 647 275 646C291 644 292 642 292 634C292 631 292 628 289 616L155 79C145 42 147 36 68 36C52 36 36 35 36 12C36 -5 51 -4 68 -4L399 -4C610 -4 808 209 808 430Z" stroke="rgb(238,140,153)" stroke-opacity="1" stroke-width="8" fill="rgb(238,140,153)" fill-opacity="1"></path></g></g><g><g><g><g><g transform="matrix(1,0,0,1,270.96251678466797,56.400003051757814)"><path transform="matrix(0.0091,0,0,-0.0091,0,0)" d="M556 636C556 686 507 710 465 710C429 710 365 690 334 589C328 567 325 560 301 436L236 436C218 436 202 435 202 412C202 395 217 396 234 396L295 396L221 6C203 -93 185 -178 138 -178C135 -178 117 -178 101 -168C140 -160 150 -127 150 -111C150 -85 129 -72 108 -72C80 -72 48 -95 48 -136C48 -185 96 -210 138 -210C196 -210 237 -148 255 -110C287 -46 310 75 311 82L371 396L453 396C472 396 488 396 488 420C488 436 471 436 456 436L378 435C388 487 387 488 398 544C402 565 417 637 422 647C431 665 446 678 465 678C468 678 486 679 503 668C466 659 456 627 456 611C456 585 476 572 497 572C525 572 556 595 556 636Z" stroke="rgb(238,140,153)" stroke-opacity="1" stroke-width="8" fill="rgb(238,140,153)" fill-opacity="1"></path></g></g></g></g></g></g></g><g><g><g><g transform="matrix(1,0,0,1,354.80001068115234,54.100006103515625)"><path transform="matrix(0.013,0,0,-0.013,0,0)" d="M760 93C760 109 743 110 743 110C730 110 728 98 726 92C701 19 660 4 639 4C610 4 604 22 604 61C604 91 609 142 613 174C615 188 618 208 618 222C618 291 566 325 534 339C632 364 744 433 744 533C744 623 650 688 518 688L233 688C213 688 200 686 200 663C200 647 215 648 232 648C232 648 252 648 269 646C288 644 292 643 292 634C292 631 292 628 289 616L155 79C145 42 147 36 68 36C50 36 36 34 36 11C36 -5 55 -5 55 -5L181 -2L308 -4C316 -4 332 -3 332 20C332 36 317 36 300 36C260 36 240 37 240 49C240 54 241 58 242 65L308 326L423 326C511 326 528 273 528 240C528 226 520 195 514 172C507 144 498 107 498 86C498 -26 623 -26 635 -26C724 -26 760 77 760 93ZM642 553C642 520 626 452 588 414C563 389 511 358 422 358L316 357L379 613C385 637 387 645 403 647C411 648 444 648 464 648C536 648 642 647 642 553Z" stroke="rgb(220,165,235)" stroke-opacity="1" stroke-width="8" fill="rgb(220,165,235)" fill-opacity="1"></path></g></g><g><g><g><g><g transform="matrix(1,0,0,1,365.06249237060547,56.400003051757814)"><path transform="matrix(0.0091,0,0,-0.0091,0,0)" d="M556 636C556 686 507 710 465 710C429 710 365 690 334 589C328 567 325 560 301 436L236 436C218 436 202 435 202 412C202 395 217 396 234 396L295 396L221 6C203 -93 185 -178 138 -178C135 -178 117 -178 101 -168C140 -160 150 -127 150 -111C150 -85 129 -72 108 -72C80 -72 48 -95 48 -136C48 -185 96 -210 138 -210C196 -210 237 -148 255 -110C287 -46 310 75 311 82L371 396L453 396C472 396 488 396 488 420C488 436 471 436 456 436L378 435C388 487 387 488 398 544C402 565 417 637 422 647C431 665 446 678 465 678C468 678 486 679 503 668C466 659 456 627 456 611C456 585 476 572 497 572C525 572 556 595 556 636Z" stroke="rgb(220,165,235)" stroke-opacity="1" stroke-width="8" fill="rgb(220,165,235)" fill-opacity="1"></path></g></g></g></g></g></g></g><g><g><g><g transform="matrix(1,0,0,1,315.1375045776367,84.60000610351562)"><path transform="matrix(0.013,0,0,-0.013,0,0)" d="M556 636C556 686 507 710 465 710C429 710 365 690 334 589C328 567 325 560 301 436L236 436C218 436 202 435 202 412C202 395 217 396 234 396L295 396L221 6C203 -93 185 -178 138 -178C135 -178 117 -178 101 -168C140 -160 150 -127 150 -111C150 -85 129 -72 108 -72C80 -72 48 -95 48 -136C48 -185 96 -210 138 -210C196 -210 237 -148 255 -110C287 -46 310 75 311 82L371 396L453 396C472 396 488 396 488 420C488 436 471 436 456 436L378 435C388 487 387 488 398 544C402 565 417 637 422 647C431 665 446 678 465 678C468 678 486 679 503 668C466 659 456 627 456 611C456 585 476 572 497 572C525 572 556 595 556 636Z" stroke="rgb(184,233,134)" stroke-opacity="1" stroke-width="8" fill="rgb(184,233,134)" fill-opacity="1"></path></g></g></g></g><g><g><g><g transform="matrix(1,0,0,1,262.80001068115234,95.10000610351562)"><path transform="matrix(0.013,0,0,-0.013,0,0)" d="M726 250C726 263 715 274 702 274L76 274C63 274 52 263 52 250C52 237 63 226 76 226L702 226C715 226 726 237 726 250Z" stroke="rgb(238,140,153)" stroke-opacity="1" stroke-width="8" fill="rgb(238,140,153)" fill-opacity="1"></path></g></g><g><g transform="matrix(1,0,0,1,272.92501068115234,95.10000610351562)"><path transform="matrix(0.013,0,0,-0.013,0,0)" d="M419 -4C421 -4 424 -3 424 0L424 31C424 33 422 36 419 36L387 36C297 36 298 45 298 79L298 640C298 665 296 670 271 670C270 670 269 670 268 669C208 607 121 606 89 606C87 606 84 605 84 602L84 571C84 569 86 566 89 566C109 566 163 566 216 590L216 79C216 46 217 36 127 36L95 36C93 36 90 34 90 31L90 0C90 -2 92 -4 95 -4C130 -1 217 -2 257 -2C297 -2 384 -1 419 -4Z" stroke="rgb(238,140,153)" stroke-opacity="1" stroke-width="8" fill="rgb(238,140,153)" fill-opacity="1"></path></g></g></g></g><g><g><g><g transform="matrix(1,0,0,1,267.0750045776367,120.10002136230469)"><path transform="matrix(0.013,0,0,-0.013,0,0)" d="M372 332C372 257 373 190 362 126C347 33 292 4 249 4C212 4 155 28 137 122C126 181 126 273 126 332C126 396 126 462 134 515C153 631 225 640 249 640C280 640 344 623 363 526C373 471 372 395 372 332ZM464 320C464 400 459 481 424 556C377 654 293 670 250 670C189 670 114 644 72 549C40 479 34 400 34 320C34 245 38 154 80 77C124 -6 199 -26 249 -26C304 -26 382 -5 427 92C459 162 464 241 464 320Z" stroke="rgb(238,140,153)" stroke-opacity="1" stroke-width="8" fill="rgb(238,140,153)" fill-opacity="1"></path></g></g></g></g><g><g><g><g transform="matrix(1,0,0,1,266.5750045776367,147.6000213623047)"><path transform="matrix(0.013,0,0,-0.013,0,0)" d="M419 -4C421 -4 424 -3 424 0L424 31C424 33 422 36 419 36L387 36C297 36 298 45 298 79L298 640C298 665 296 670 271 670C270 670 269 670 268 669C208 607 121 606 89 606C87 606 84 605 84 602L84 571C84 569 86 566 89 566C109 566 163 566 216 590L216 79C216 46 217 36 127 36L95 36C93 36 90 34 90 31L90 0C90 -2 92 -4 95 -4C130 -1 217 -2 257 -2C297 -2 384 -1 419 -4Z" stroke="rgb(238,140,153)" stroke-opacity="1" stroke-width="8" fill="rgb(238,140,153)" fill-opacity="1"></path></g></g></g></g><g><g><g><g transform="matrix(1,0,0,1,357.0750045776367,97.40000915527344)"><path transform="matrix(0.013,0,0,-0.013,0,0)" d="M419 -4C421 -4 424 -3 424 0L424 31C424 33 422 36 419 36L387 36C297 36 298 45 298 79L298 640C298 665 296 670 271 670C270 670 269 670 268 669C208 607 121 606 89 606C87 606 84 605 84 602L84 571C84 569 86 566 89 566C109 566 163 566 216 590L216 79C216 46 217 36 127 36L95 36C93 36 90 34 90 31L90 0C90 -2 92 -4 95 -4C130 -1 217 -2 257 -2C297 -2 384 -1 419 -4Z" stroke="rgb(220,165,235)" stroke-opacity="1" stroke-width="8" fill="rgb(220,165,235)" fill-opacity="1"></path></g></g></g></g><g><g><g><g transform="matrix(1,0,0,1,357.0750045776367,122.40000915527344)"><path transform="matrix(0.013,0,0,-0.013,0,0)" d="M372 332C372 257 373 190 362 126C347 33 292 4 249 4C212 4 155 28 137 122C126 181 126 273 126 332C126 396 126 462 134 515C153 631 225 640 249 640C280 640 344 623 363 526C373 471 372 395 372 332ZM464 320C464 400 459 481 424 556C377 654 293 670 250 670C189 670 114 644 72 549C40 479 34 400 34 320C34 245 38 154 80 77C124 -6 199 -26 249 -26C304 -26 382 -5 427 92C459 162 464 241 464 320Z" stroke="rgb(220,165,235)" stroke-opacity="1" stroke-width="8" fill="rgb(220,165,235)" fill-opacity="1"></path></g></g></g></g><g><g><g><g transform="matrix(1,0,0,1,44.79999542236328,35.30000305175781)"><path transform="matrix(0.013,0,0,-0.013,0,0)" d="M556 636C556 686 507 710 465 710C429 710 365 690 334 589C328 567 325 560 301 436L236 436C218 436 202 435 202 412C202 395 217 396 234 396L295 396L221 6C203 -93 185 -178 138 -178C135 -178 117 -178 101 -168C140 -160 150 -127 150 -111C150 -85 129 -72 108 -72C80 -72 48 -95 48 -136C48 -185 96 -210 138 -210C196 -210 237 -148 255 -110C287 -46 310 75 311 82L371 396L453 396C472 396 488 396 488 420C488 436 471 436 456 436L378 435C388 487 387 488 398 544C402 565 417 637 422 647C431 665 446 678 465 678C468 678 486 679 503 668C466 659 456 627 456 611C456 585 476 572 497 572C525 572 556 595 556 636Z" stroke="rgb(164,198,243)" stroke-opacity="1" stroke-width="8" fill="rgb(164,198,243)" fill-opacity="1"></path></g></g><g><g transform="matrix(1,0,0,1,51.17499542236328,35.30000305175781)"><path transform="matrix(0.013,0,0,-0.013,0,0)" d="M336 -238C336 -233 334 -228 331 -226C229 -149 160 49 160 208L160 292C160 451 229 649 331 726C334 728 336 733 336 738C336 746 330 752 322 752C318 752 315 751 313 750C202 666 96 465 96 292L96 208C96 35 202 -166 313 -250C315 -251 318 -252 322 -252C330 -252 336 -246 336 -238Z" stroke="rgb(164,198,243)" stroke-opacity="1" stroke-width="8" fill="rgb(164,198,243)" fill-opacity="1"></path></g></g><g><g transform="matrix(1,0,0,1,56.23749542236328,35.30000305175781)"><path transform="matrix(0.013,0,0,-0.013,0,0)" d="M532 376C532 432 468 446 434 446C380 446 346 403 330 376C303 435 250 446 221 446C113 446 56 315 56 288C56 273 72 274 72 274C82 274 87 278 89 288C123 392 187 416 219 416C236 416 268 408 268 353C268 323 252 256 215 116C199 55 165 16 124 16C119 16 104 15 86 23C108 32 126 51 126 78C126 108 100 118 84 118C51 118 24 89 24 55C24 5 79 -16 123 -16C180 -16 215 33 227 54C242 19 278 -16 336 -16C443 -16 500 116 500 143C500 157 486 158 484 158C473 158 469 150 467 143C435 38 368 16 338 16C302 16 288 44 288 77C288 98 293 120 304 164L338 301C344 328 367 416 433 416C437 416 453 415 471 408C447 399 430 376 430 353C430 335 443 314 473 314C497 314 532 333 532 376Z" stroke="rgb(164,198,243)" stroke-opacity="1" stroke-width="8" fill="rgb(164,198,243)" fill-opacity="1"></path></g></g><g><g transform="matrix(1,0,0,1,63.67499542236328,35.30000305175781)"><path transform="matrix(0.013,0,0,-0.013,0,0)" d="M292 208L292 292C292 465 187 666 76 750C74 751 71 752 67 752C59 752 52 746 52 738C52 733 55 728 58 726C160 649 230 451 230 292L230 208C230 49 160 -149 58 -226C55 -228 52 -233 52 -238C52 -246 59 -252 67 -252C71 -252 74 -251 76 -250C187 -166 292 35 292 208Z" stroke="rgb(164,198,243)" stroke-opacity="1" stroke-width="8" fill="rgb(164,198,243)" fill-opacity="1"></path></g></g><g><g transform="matrix(1,0,0,1,72.63750457763672,35.30000305175781)"><path transform="matrix(0.013,0,0,-0.013,0,0)" d="M726 153C726 166 715 178 702 178L76 178C63 178 52 166 52 153C52 140 63 128 76 128L702 128C715 128 726 140 726 153ZM726 347C726 360 715 372 702 372L76 372C63 372 52 360 52 347C52 334 63 322 76 322L702 322C715 322 726 334 726 347Z" stroke="rgb(164,198,243)" stroke-opacity="1" stroke-width="8" fill="rgb(164,198,243)" fill-opacity="1"></path></g></g><g><g transform="matrix(1,0,0,1,86.6624984741211,35.30000305175781)"><path transform="matrix(0.013,0,0,-0.013,0,0)" d="M532 376C532 432 468 446 434 446C380 446 346 403 330 376C303 435 250 446 221 446C113 446 56 315 56 288C56 273 72 274 72 274C82 274 87 278 89 288C123 392 187 416 219 416C236 416 268 408 268 353C268 323 252 256 215 116C199 55 165 16 124 16C119 16 104 15 86 23C108 32 126 51 126 78C126 108 100 118 84 118C51 118 24 89 24 55C24 5 79 -16 123 -16C180 -16 215 33 227 54C242 19 278 -16 336 -16C443 -16 500 116 500 143C500 157 486 158 484 158C473 158 469 150 467 143C435 38 368 16 338 16C302 16 288 44 288 77C288 98 293 120 304 164L338 301C344 328 367 416 433 416C437 416 453 415 471 408C447 399 430 376 430 353C430 335 443 314 473 314C497 314 532 333 532 376Z" stroke="rgb(164,198,243)" stroke-opacity="1" stroke-width="8" fill="rgb(164,198,243)" fill-opacity="1"></path></g></g><g><g transform="matrix(1,0,0,1,96.70000457763672,35.30000305175781)"><path transform="matrix(0.013,0,0,-0.013,0,0)" d="M726 250C726 263 715 274 702 274L414 274L414 563C414 576 402 588 389 588C376 588 364 576 364 563L364 274L76 274C63 274 52 263 52 250C52 237 63 226 76 226L364 226L364 -63C364 -76 376 -88 389 -88C402 -88 414 -76 414 -63L414 226L702 226C715 226 726 237 726 250Z" stroke="rgb(164,198,243)" stroke-opacity="1" stroke-width="8" fill="rgb(164,198,243)" fill-opacity="1"></path></g></g><g><g transform="matrix(1,0,0,1,109.42499542236328,35.30000305175781)"><path transform="matrix(0.013,0,0,-0.013,0,0)" d="M162 348C162 333 175 332 191 332L235 332C313 332 350 268 350 171C350 37 283 10 241 10C201 10 133 26 97 77C129 77 158 99 158 137C158 176 129 198 98 198C72 198 38 182 38 135C38 40 134 -26 244 -26C368 -26 462 66 462 171C462 251 404 327 306 353C381 384 434 451 434 528C434 614 343 670 246 670C144 670 64 609 64 530C64 495 89 474 120 474C153 474 176 498 176 529C176 575 137 582 117 583C149 624 208 636 242 636C281 636 334 616 334 529C334 517 331 460 306 417C277 371 246 368 221 367C213 367 189 364 182 364C174 364 162 361 162 348Z" stroke="rgb(164,198,243)" stroke-opacity="1" stroke-width="8" fill="rgb(164,198,243)" fill-opacity="1"></path></g></g></g></g><g><g><g><g transform="matrix(1,0,0,1,291.30001068115234,36.02500915527344)"><path transform="matrix(0.013,0,0,-0.013,0,0)" d="M556 636C556 686 507 710 465 710C429 710 365 690 334 589C328 567 325 560 301 436L236 436C218 436 202 435 202 412C202 395 217 396 234 396L295 396L221 6C203 -93 185 -178 138 -178C135 -178 117 -178 101 -168C140 -160 150 -127 150 -111C150 -85 129 -72 108 -72C80 -72 48 -95 48 -136C48 -185 96 -210 138 -210C196 -210 237 -148 255 -110C287 -46 310 75 311 82L371 396L453 396C472 396 488 396 488 420C488 436 471 436 456 436L378 435C388 487 387 488 398 544C402 565 417 637 422 647C431 665 446 678 465 678C468 678 486 679 503 668C466 659 456 627 456 611C456 585 476 572 497 572C525 572 556 595 556 636Z" stroke="rgb(164,198,243)" stroke-opacity="1" stroke-width="8" fill="rgb(164,198,243)" fill-opacity="1"></path></g></g><g><g transform="matrix(1,0,0,1,297.67501068115234,36.02500915527344)"><path transform="matrix(0.013,0,0,-0.013,0,0)" d="M336 -238C336 -233 334 -228 331 -226C229 -149 160 49 160 208L160 292C160 451 229 649 331 726C334 728 336 733 336 738C336 746 330 752 322 752C318 752 315 751 313 750C202 666 96 465 96 292L96 208C96 35 202 -166 313 -250C315 -251 318 -252 322 -252C330 -252 336 -246 336 -238Z" stroke="rgb(164,198,243)" stroke-opacity="1" stroke-width="8" fill="rgb(164,198,243)" fill-opacity="1"></path></g></g><g><g transform="matrix(1,0,0,1,302.73751068115234,36.02500915527344)"><path transform="matrix(0.013,0,0,-0.013,0,0)" d="M532 376C532 432 468 446 434 446C380 446 346 403 330 376C303 435 250 446 221 446C113 446 56 315 56 288C56 273 72 274 72 274C82 274 87 278 89 288C123 392 187 416 219 416C236 416 268 408 268 353C268 323 252 256 215 116C199 55 165 16 124 16C119 16 104 15 86 23C108 32 126 51 126 78C126 108 100 118 84 118C51 118 24 89 24 55C24 5 79 -16 123 -16C180 -16 215 33 227 54C242 19 278 -16 336 -16C443 -16 500 116 500 143C500 157 486 158 484 158C473 158 469 150 467 143C435 38 368 16 338 16C302 16 288 44 288 77C288 98 293 120 304 164L338 301C344 328 367 416 433 416C437 416 453 415 471 408C447 399 430 376 430 353C430 335 443 314 473 314C497 314 532 333 532 376Z" stroke="rgb(164,198,243)" stroke-opacity="1" stroke-width="8" fill="rgb(164,198,243)" fill-opacity="1"></path></g></g><g><g transform="matrix(1,0,0,1,310.17501068115234,36.02500915527344)"><path transform="matrix(0.013,0,0,-0.013,0,0)" d="M292 208L292 292C292 465 187 666 76 750C74 751 71 752 67 752C59 752 52 746 52 738C52 733 55 728 58 726C160 649 230 451 230 292L230 208C230 49 160 -149 58 -226C55 -228 52 -233 52 -238C52 -246 59 -252 67 -252C71 -252 74 -251 76 -250C187 -166 292 35 292 208Z" stroke="rgb(164,198,243)" stroke-opacity="1" stroke-width="8" fill="rgb(164,198,243)" fill-opacity="1"></path></g></g><g><g transform="matrix(1,0,0,1,319.1375045776367,36.02500915527344)"><path transform="matrix(0.013,0,0,-0.013,0,0)" d="M726 153C726 166 715 178 702 178L76 178C63 178 52 166 52 153C52 140 63 128 76 128L702 128C715 128 726 140 726 153ZM726 347C726 360 715 372 702 372L76 372C63 372 52 360 52 347C52 334 63 322 76 322L702 322C715 322 726 334 726 347Z" stroke="rgb(164,198,243)" stroke-opacity="1" stroke-width="8" fill="rgb(164,198,243)" fill-opacity="1"></path></g></g><g><g transform="matrix(1,0,0,1,333.1624984741211,36.02500915527344)"><path transform="matrix(0.013,0,0,-0.013,0,0)" d="M532 376C532 432 468 446 434 446C380 446 346 403 330 376C303 435 250 446 221 446C113 446 56 315 56 288C56 273 72 274 72 274C82 274 87 278 89 288C123 392 187 416 219 416C236 416 268 408 268 353C268 323 252 256 215 116C199 55 165 16 124 16C119 16 104 15 86 23C108 32 126 51 126 78C126 108 100 118 84 118C51 118 24 89 24 55C24 5 79 -16 123 -16C180 -16 215 33 227 54C242 19 278 -16 336 -16C443 -16 500 116 500 143C500 157 486 158 484 158C473 158 469 150 467 143C435 38 368 16 338 16C302 16 288 44 288 77C288 98 293 120 304 164L338 301C344 328 367 416 433 416C437 416 453 415 471 408C447 399 430 376 430 353C430 335 443 314 473 314C497 314 532 333 532 376Z" stroke="rgb(164,198,243)" stroke-opacity="1" stroke-width="8" fill="rgb(164,198,243)" fill-opacity="1"></path></g></g><g><g><g><g><g transform="matrix(1,0,0,1,341.3499984741211,30.900003051757814)"><path transform="matrix(0.0091,0,0,-0.0091,0,0)" d="M453 173C453 175 452 178 449 178L424 178C422 178 420 177 420 175C415 145 408 102 399 88C391 83 329 82 307 82L138 81L236 177C392 315 454 370 454 472C454 589 361 670 237 670C121 670 46 576 46 485C46 425 100 424 103 424C121 424 160 438 160 482C160 510 140 538 102 538L96 538C120 597 170 630 224 630C312 630 354 553 354 472C354 394 305 316 250 254L58 40C46 28 46 24 46 0C46 -2 47 -4 50 -4L421 -4C423 -4 425 -3 425 -1Z" stroke="rgb(164,198,243)" stroke-opacity="1" stroke-width="8" fill="rgb(164,198,243)" fill-opacity="1"></path></g></g></g></g></g></g></g></svg>
</svg>
