<svg xmlns="http://www.w3.org/2000/svg" xmlns:xlink="http://www.w3.org/1999/xlink" x="0" y="0" width="246.16250610351562" height="149.90000915527344" style="
        width:246.16250610351562px;
        height:149.90000915527344px;
        background: transparent;
        fill: none;
">
        
        
        <svg xmlns="http://www.w3.org/2000/svg" class="role-diagram-draw-area"><g class="shapes-region" style="stroke: black; fill: none;"><g class="composite-shape axis2d" style="stroke-width: 1; stroke: rgb(164, 198, 243); stroke-opacity: 1;"><path class="real" d=" M-15.1,125.8 L224.1,125.8 M9.8,22.3 L9.8,148.2"/><path d=" M217.1,120.8 L224.1,125.8 L217.1,130.8"/><path d=" M4.8,29.3 L9.8,22.3 L14.8,29.3"/></g><g class="arrow-line"><path class="connection real" stroke-dasharray="" d="  M16.07,13.32 C20.36,78.2 24.36,119.9 222.3,121.28" style="stroke: rgb(164, 198, 243); stroke-opacity: 1; stroke-width: 2; fill: none; fill-opacity: 1;"/><g stroke="none" fill="rgb(164,198,243)" fill-opacity="1" transform="matrix(0.06644804859873621,0.9977898861170221,-0.9977898861170221,0.06644804859873621,15.80000305175781,9.300003051757812)" style="stroke: none; fill: rgb(164, 198, 243); stroke-width: 2;"><path d=" M4.64,-2.23 L0,0 L4.64,2.23 Z"/></g><g stroke="none" fill="rgb(164,198,243)" fill-opacity="1" transform="matrix(-0.9999880590209089,-0.004886902454024558,0.004886902454024558,-0.9999880590209089,225.30000305175778,121.30000305175781)" style="stroke: none; fill: rgb(164, 198, 243); stroke-width: 2;"><path d=" M4.64,-2.23 L0,0 L4.64,2.23 Z"/></g></g><g class="shape"><path class="real" d=" M42.3,88.8 C55.93,95.87 65.27,105.53 86.8,108.2 C86.93,126.87 86.6,93.53 86.8,125.8 C70.93,125.87 77.6,126.53 42.3,125.8 C41.93,127.53 42.27,82.53 42.3,88.8 Z" style="stroke: rgb(164, 198, 243); stroke-opacity: 1; stroke-width: 1; fill: rgb(164, 198, 243); fill-opacity: 0.2;"/></g><g class="shape"><path class="real" d=" M23.12,62.32 C32.72,79.32 32.32,78.72 42.3,87.8 C42.48,118.72 42.1,93.53 42.3,125.8 C43.12,126.52 39.12,125.32 23.52,125.92 C23.15,127.65 23.09,56.05 23.12,62.32 Z" style="stroke: rgb(238, 140, 153); stroke-opacity: 1; stroke-width: 1; fill: rgb(238, 140, 153); fill-opacity: 0.2;"/></g><g/></g><g/><g/><g/></svg>
        <svg xmlns="http://www.w3.org/2000/svg" xmlns:xlink="http://www.w3.org/1999/xlink" width="244.5625" height="148.3000030517578" style="width:244.5625px;height:148.3000030517578px;font-family:ThickerLm-Math, ThickerLm, Asana-Math, Asana;background:transparent;"><g><g><g><g transform="matrix(1,0,0,1,167,105.80000152587891)"><path transform="matrix(0.0104,0,0,-0.0104,0,0)" d="M148 -88C148 -53 116 -48 106 -48C81 -48 46 -66 46 -118C46 -171 92 -210 156 -210C262 -210 366 -117 394 -2L490 380C494 394 494 397 494 404C494 425 478 436 461 436C449 436 432 429 422 412C419 407 412 375 408 357C386 270 365 184 343 97C339 83 297 16 234 16C187 16 176 55 176 92C176 137 193 198 227 286C243 327 248 339 248 360C248 407 214 446 161 446C61 446 24 298 24 288C24 273 41 274 41 274C53 274 56 279 61 295C88 389 127 416 158 416C165 416 178 417 178 388C178 364 169 339 162 320C122 214 104 156 104 108C104 16 170 -16 230 -16C265 -16 297 -2 323 20C311 -26 298 -70 262 -117C236 -150 200 -178 156 -178C143 -178 106 -176 87 -145C118 -144 148 -124 148 -88Z" stroke="rgb(164,198,243)" stroke-opacity="1" stroke-width="8" fill="rgb(164,198,243)" fill-opacity="1"></path></g></g><g><g transform="matrix(1,0,0,1,175.21249389648438,105.80000152587891)"><path transform="matrix(0.0104,0,0,-0.0104,0,0)" d="M726 153C726 166 715 178 702 178L76 178C63 178 52 166 52 153C52 140 63 128 76 128L702 128C715 128 726 140 726 153ZM726 347C726 360 715 372 702 372L76 372C63 372 52 360 52 347C52 334 63 322 76 322L702 322C715 322 726 334 726 347Z" stroke="rgb(164,198,243)" stroke-opacity="1" stroke-width="8" fill="rgb(164,198,243)" fill-opacity="1"></path></g></g><g><g><g><g><g transform="matrix(1,0,0,1,187.83749389648438,98.32499542236329)"><path transform="matrix(0.0104,0,0,-0.0104,0,0)" d="M419 -4C421 -4 424 -3 424 0L424 31C424 33 422 36 419 36L387 36C297 36 298 45 298 79L298 640C298 665 296 670 271 670C270 670 269 670 268 669C208 607 121 606 89 606C87 606 84 605 84 602L84 571C84 569 86 566 89 566C109 566 163 566 216 590L216 79C216 46 217 36 127 36L95 36C93 36 90 34 90 31L90 0C90 -2 92 -4 95 -4C130 -1 217 -2 257 -2C297 -2 384 -1 419 -4Z" stroke="rgb(164,198,243)" stroke-opacity="1" stroke-width="8" fill="rgb(164,198,243)" fill-opacity="1"></path></g></g></g></g><g><g><g><g transform="matrix(1,0,0,1,187.46249389648438,114.27499237060547)"><path transform="matrix(0.0104,0,0,-0.0104,0,0)" d="M532 376C532 432 468 446 434 446C380 446 346 403 330 376C303 435 250 446 221 446C113 446 56 315 56 288C56 273 72 274 72 274C82 274 87 278 89 288C123 392 187 416 219 416C236 416 268 408 268 353C268 323 252 256 215 116C199 55 165 16 124 16C119 16 104 15 86 23C108 32 126 51 126 78C126 108 100 118 84 118C51 118 24 89 24 55C24 5 79 -16 123 -16C180 -16 215 33 227 54C242 19 278 -16 336 -16C443 -16 500 116 500 143C500 157 486 158 484 158C473 158 469 150 467 143C435 38 368 16 338 16C302 16 288 44 288 77C288 98 293 120 304 164L338 301C344 328 367 416 433 416C437 416 453 415 471 408C447 399 430 376 430 353C430 335 443 314 473 314C497 314 532 333 532 376Z" stroke="rgb(164,198,243)" stroke-opacity="1" stroke-width="8" fill="rgb(164,198,243)" fill-opacity="1"></path></g></g></g></g><line style="fill:none;stroke-width:0.8px;stroke:rgb(164, 198, 243);" x1="187.46249389648438" y1="103.20000153779984" x2="193.41249418258667" y2="103.20000153779984"></line></g></g></g><g><g><g><g transform="matrix(1,0,0,1,6.6374969482421875,15.799995422363281)"><path transform="matrix(0.013,0,0,-0.013,0,0)" d="M148 -88C148 -53 116 -48 106 -48C81 -48 46 -66 46 -118C46 -171 92 -210 156 -210C262 -210 366 -117 394 -2L490 380C494 394 494 397 494 404C494 425 478 436 461 436C449 436 432 429 422 412C419 407 412 375 408 357C386 270 365 184 343 97C339 83 297 16 234 16C187 16 176 55 176 92C176 137 193 198 227 286C243 327 248 339 248 360C248 407 214 446 161 446C61 446 24 298 24 288C24 273 41 274 41 274C53 274 56 279 61 295C88 389 127 416 158 416C165 416 178 417 178 388C178 364 169 339 162 320C122 214 104 156 104 108C104 16 170 -16 230 -16C265 -16 297 -2 323 20C311 -26 298 -70 262 -117C236 -150 200 -178 156 -178C143 -178 106 -176 87 -145C118 -144 148 -124 148 -88Z" stroke="rgb(164,198,243)" stroke-opacity="1" stroke-width="8" fill="rgb(164,198,243)" fill-opacity="1"></path></g></g></g></g><g><g><g><g transform="matrix(1,0,0,1,229.30001831054688,127.79999542236328)"><path transform="matrix(0.013,0,0,-0.013,0,0)" d="M532 376C532 432 468 446 434 446C380 446 346 403 330 376C303 435 250 446 221 446C113 446 56 315 56 288C56 273 72 274 72 274C82 274 87 278 89 288C123 392 187 416 219 416C236 416 268 408 268 353C268 323 252 256 215 116C199 55 165 16 124 16C119 16 104 15 86 23C108 32 126 51 126 78C126 108 100 118 84 118C51 118 24 89 24 55C24 5 79 -16 123 -16C180 -16 215 33 227 54C242 19 278 -16 336 -16C443 -16 500 116 500 143C500 157 486 158 484 158C473 158 469 150 467 143C435 38 368 16 338 16C302 16 288 44 288 77C288 98 293 120 304 164L338 301C344 328 367 416 433 416C437 416 453 415 471 408C447 399 430 376 430 353C430 335 443 314 473 314C497 314 532 333 532 376Z" stroke="rgb(164,198,243)" stroke-opacity="1" stroke-width="8" fill="rgb(164,198,243)" fill-opacity="1"></path></g></g></g></g><g><g><g><g transform="matrix(1,0,0,1,38.90000915527344,139.36249542236328)"><path transform="matrix(0.013,0,0,-0.013,0,0)" d="M419 -4C421 -4 424 -3 424 0L424 31C424 33 422 36 419 36L387 36C297 36 298 45 298 79L298 640C298 665 296 670 271 670C270 670 269 670 268 669C208 607 121 606 89 606C87 606 84 605 84 602L84 571C84 569 86 566 89 566C109 566 163 566 216 590L216 79C216 46 217 36 127 36L95 36C93 36 90 34 90 31L90 0C90 -2 92 -4 95 -4C130 -1 217 -2 257 -2C297 -2 384 -1 419 -4Z" stroke="rgb(164,198,243)" stroke-opacity="1" stroke-width="8" fill="rgb(164,198,243)" fill-opacity="1"></path></g></g></g></g><g><g><g><g transform="matrix(1,0,0,1,82.96250915527344,138.0999984741211)"><path transform="matrix(0.013,0,0,-0.013,0,0)" d="M532 376C532 432 468 446 434 446C380 446 346 403 330 376C303 435 250 446 221 446C113 446 56 315 56 288C56 273 72 274 72 274C82 274 87 278 89 288C123 392 187 416 219 416C236 416 268 408 268 353C268 323 252 256 215 116C199 55 165 16 124 16C119 16 104 15 86 23C108 32 126 51 126 78C126 108 100 118 84 118C51 118 24 89 24 55C24 5 79 -16 123 -16C180 -16 215 33 227 54C242 19 278 -16 336 -16C443 -16 500 116 500 143C500 157 486 158 484 158C473 158 469 150 467 143C435 38 368 16 338 16C302 16 288 44 288 77C288 98 293 120 304 164L338 301C344 328 367 416 433 416C437 416 453 415 471 408C447 399 430 376 430 353C430 335 443 314 473 314C497 314 532 333 532 376Z" stroke="rgb(164,198,243)" stroke-opacity="1" stroke-width="8" fill="rgb(164,198,243)" fill-opacity="1"></path></g></g></g></g><g><g><g><g><g transform="matrix(1,0,0,1,54.38749694824219,118.4625015258789)"><path transform="matrix(0.013,0,0,-0.013,0,0)" d="M144 -2L255 -4C257 -4 260 -3 260 0L260 31C260 33 258 36 255 36C187 36 182 34 182 76L182 694C182 697 180 698 177 698L33 687C31 687 28 685 28 683L28 652C28 650 30 648 33 648C102 648 106 643 106 596L106 76C106 34 101 36 33 36C31 36 28 34 28 31L28 0C28 -2 30 -4 33 -4ZM423 -2L535 -4C537 -4 540 -3 540 0L540 31C540 33 538 36 535 36C467 36 462 34 462 76L462 260C462 362 531 416 592 416C651 416 662 366 662 309L662 76C662 34 656 36 588 36C586 36 584 34 584 31L584 0C584 -2 585 -4 588 -4L701 -2L813 -4C815 -4 818 -3 818 0L818 31C818 33 816 36 813 36C759 36 741 36 740 61L740 252C740 338 739 371 707 408C692 426 658 446 599 446C531 446 485 410 456 356L456 442C456 445 454 446 451 446L310 435C308 435 306 433 306 431L306 400C306 398 307 396 310 396C379 396 384 391 384 344L384 76C384 34 378 36 310 36C308 36 306 34 306 31L306 0C306 -2 307 -4 310 -4Z" stroke="rgb(164,198,243)" stroke-opacity="1" stroke-width="8" fill="rgb(164,198,243)" fill-opacity="1"></path></g></g></g><g><g transform="matrix(1,0,0,1,67.83750915527344,118.4625015258789)"><path transform="matrix(0.013,0,0,-0.013,0,0)" d="M532 376C532 432 468 446 434 446C380 446 346 403 330 376C303 435 250 446 221 446C113 446 56 315 56 288C56 273 72 274 72 274C82 274 87 278 89 288C123 392 187 416 219 416C236 416 268 408 268 353C268 323 252 256 215 116C199 55 165 16 124 16C119 16 104 15 86 23C108 32 126 51 126 78C126 108 100 118 84 118C51 118 24 89 24 55C24 5 79 -16 123 -16C180 -16 215 33 227 54C242 19 278 -16 336 -16C443 -16 500 116 500 143C500 157 486 158 484 158C473 158 469 150 467 143C435 38 368 16 338 16C302 16 288 44 288 77C288 98 293 120 304 164L338 301C344 328 367 416 433 416C437 416 453 415 471 408C447 399 430 376 430 353C430 335 443 314 473 314C497 314 532 333 532 376Z" stroke="rgb(164,198,243)" stroke-opacity="1" stroke-width="8" fill="rgb(164,198,243)" fill-opacity="1"></path></g></g></g></g><g transform="matrix(-1.8369701987210297e-16,-1,1,-1.8369701987210297e-16,-71.7624921798706,139.13751125335696)"><g><g><g><g transform="matrix(1,0,0,1,23.243759155273438,110.6500015258789)"><path transform="matrix(0.013,0,0,-0.013,0,0)" d="M144 -2L255 -4C257 -4 260 -3 260 0L260 31C260 33 258 36 255 36C187 36 182 34 182 76L182 694C182 697 180 698 177 698L33 687C31 687 28 685 28 683L28 652C28 650 30 648 33 648C102 648 106 643 106 596L106 76C106 34 101 36 33 36C31 36 28 34 28 31L28 0C28 -2 30 -4 33 -4ZM423 -2L535 -4C537 -4 540 -3 540 0L540 31C540 33 538 36 535 36C467 36 462 34 462 76L462 260C462 362 531 416 592 416C651 416 662 366 662 309L662 76C662 34 656 36 588 36C586 36 584 34 584 31L584 0C584 -2 585 -4 588 -4L701 -2L813 -4C815 -4 818 -3 818 0L818 31C818 33 816 36 813 36C759 36 741 36 740 61L740 252C740 338 739 371 707 408C692 426 658 446 599 446C531 446 485 410 456 356L456 442C456 445 454 446 451 446L310 435C308 435 306 433 306 431L306 400C306 398 307 396 310 396C379 396 384 391 384 344L384 76C384 34 378 36 310 36C308 36 306 34 306 31L306 0C306 -2 307 -4 310 -4Z" stroke="rgb(238,140,153)" stroke-opacity="1" stroke-width="8" fill="rgb(238,140,153)" fill-opacity="1"></path></g></g></g><g><g transform="matrix(1,0,0,1,36.693756103515625,110.6500015258789)"><path transform="matrix(0.013,0,0,-0.013,0,0)" d="M532 376C532 432 468 446 434 446C380 446 346 403 330 376C303 435 250 446 221 446C113 446 56 315 56 288C56 273 72 274 72 274C82 274 87 278 89 288C123 392 187 416 219 416C236 416 268 408 268 353C268 323 252 256 215 116C199 55 165 16 124 16C119 16 104 15 86 23C108 32 126 51 126 78C126 108 100 118 84 118C51 118 24 89 24 55C24 5 79 -16 123 -16C180 -16 215 33 227 54C242 19 278 -16 336 -16C443 -16 500 116 500 143C500 157 486 158 484 158C473 158 469 150 467 143C435 38 368 16 338 16C302 16 288 44 288 77C288 98 293 120 304 164L338 301C344 328 367 416 433 416C437 416 453 415 471 408C447 399 430 376 430 353C430 335 443 314 473 314C497 314 532 333 532 376Z" stroke="rgb(238,140,153)" stroke-opacity="1" stroke-width="8" fill="rgb(238,140,153)" fill-opacity="1"></path></g></g></g></g><g><g><g><g><g transform="matrix(1,0,0,1,74.5,32.03750457763672)"><path transform="matrix(0.0104,0,0,-0.0104,0,0)" d="M144 -2L255 -4C257 -4 260 -3 260 0L260 31C260 33 258 36 255 36C187 36 182 34 182 76L182 694C182 697 180 698 177 698L33 687C31 687 28 685 28 683L28 652C28 650 30 648 33 648C102 648 106 643 106 596L106 76C106 34 101 36 33 36C31 36 28 34 28 31L28 0C28 -2 30 -4 33 -4ZM423 -2L535 -4C537 -4 540 -3 540 0L540 31C540 33 538 36 535 36C467 36 462 34 462 76L462 260C462 362 531 416 592 416C651 416 662 366 662 309L662 76C662 34 656 36 588 36C586 36 584 34 584 31L584 0C584 -2 585 -4 588 -4L701 -2L813 -4C815 -4 818 -3 818 0L818 31C818 33 816 36 813 36C759 36 741 36 740 61L740 252C740 338 739 371 707 408C692 426 658 446 599 446C531 446 485 410 456 356L456 442C456 445 454 446 451 446L310 435C308 435 306 433 306 431L306 400C306 398 307 396 310 396C379 396 384 391 384 344L384 76C384 34 378 36 310 36C308 36 306 34 306 31L306 0C306 -2 307 -4 310 -4Z" stroke="rgb(164,198,243)" stroke-opacity="1" stroke-width="8" fill="rgb(164,198,243)" fill-opacity="1"></path></g></g></g><g><g transform="matrix(1,0,0,1,85.25,32.03750457763672)"><path transform="matrix(0.0104,0,0,-0.0104,0,0)" d="M532 376C532 432 468 446 434 446C380 446 346 403 330 376C303 435 250 446 221 446C113 446 56 315 56 288C56 273 72 274 72 274C82 274 87 278 89 288C123 392 187 416 219 416C236 416 268 408 268 353C268 323 252 256 215 116C199 55 165 16 124 16C119 16 104 15 86 23C108 32 126 51 126 78C126 108 100 118 84 118C51 118 24 89 24 55C24 5 79 -16 123 -16C180 -16 215 33 227 54C242 19 278 -16 336 -16C443 -16 500 116 500 143C500 157 486 158 484 158C473 158 469 150 467 143C435 38 368 16 338 16C302 16 288 44 288 77C288 98 293 120 304 164L338 301C344 328 367 416 433 416C437 416 453 415 471 408C447 399 430 376 430 353C430 335 443 314 473 314C497 314 532 333 532 376Z" stroke="rgb(164,198,243)" stroke-opacity="1" stroke-width="8" fill="rgb(164,198,243)" fill-opacity="1"></path></g></g><g><g transform="matrix(1,0,0,1,94.3125,32.03750457763672)"><path transform="matrix(0.0104,0,0,-0.0104,0,0)" d="M726 153C726 166 715 178 702 178L76 178C63 178 52 166 52 153C52 140 63 128 76 128L702 128C715 128 726 140 726 153ZM726 347C726 360 715 372 702 372L76 372C63 372 52 360 52 347C52 334 63 322 76 322L702 322C715 322 726 334 726 347Z" stroke="rgb(164,198,243)" stroke-opacity="1" stroke-width="8" fill="rgb(164,198,243)" fill-opacity="1"></path></g></g><g><g><g><g><g><g><g><g transform="matrix(1,0,0,1,124.58749389648438,10.780000000000001)"><path transform="matrix(0.00728,0,0,-0.00728,0,0)" d="M532 376C532 432 468 446 434 446C380 446 346 403 330 376C303 435 250 446 221 446C113 446 56 315 56 288C56 273 72 274 72 274C82 274 87 278 89 288C123 392 187 416 219 416C236 416 268 408 268 353C268 323 252 256 215 116C199 55 165 16 124 16C119 16 104 15 86 23C108 32 126 51 126 78C126 108 100 118 84 118C51 118 24 89 24 55C24 5 79 -16 123 -16C180 -16 215 33 227 54C242 19 278 -16 336 -16C443 -16 500 116 500 143C500 157 486 158 484 158C473 158 469 150 467 143C435 38 368 16 338 16C302 16 288 44 288 77C288 98 293 120 304 164L338 301C344 328 367 416 433 416C437 416 453 415 471 408C447 399 430 376 430 353C430 335 443 314 473 314C497 314 532 333 532 376Z" stroke="rgb(164,198,243)" stroke-opacity="1" stroke-width="8" fill="rgb(164,198,243)" fill-opacity="1"></path></g></g></g></g><g><g><g><g transform="matrix(1,0,0,1,120.07501220703125,27.767495422363282)"><path transform="matrix(0.00728,0,0,-0.00728,0,0)" d="M419 -4C421 -4 424 -3 424 0L424 31C424 33 422 36 419 36L387 36C297 36 298 45 298 79L298 640C298 665 296 670 271 670C270 670 269 670 268 669C208 607 121 606 89 606C87 606 84 605 84 602L84 571C84 569 86 566 89 566C109 566 163 566 216 590L216 79C216 46 217 36 127 36L95 36C93 36 90 34 90 31L90 0C90 -2 92 -4 95 -4C130 -1 217 -2 257 -2C297 -2 384 -1 419 -4Z" stroke="rgb(164,198,243)" stroke-opacity="1" stroke-width="8" fill="rgb(164,198,243)" fill-opacity="1"></path></g></g></g></g><g><g transform="matrix(1,0,0,1,113.60000610351562,21.11749923706055)"><path transform="matrix(0.0156,0,0,-0.0156,0,0)" d="M614 722C614 774 560 810 499 810C400 810 361 709 344 633C332 577 296 295 287 174L268 -75C255 -239 219 -280 166 -280C155 -280 132 -277 113 -265C136 -257 144 -236 144 -222C144 -190 119 -176 98 -176C76 -176 52 -190 52 -223C52 -275 105 -310 166 -310C264 -310 313 -220 335 -130C348 -77 384 214 392 325L411 574C425 758 459 778 500 778C509 778 532 777 553 764C530 756 522 735 522 721C522 689 546 674 567 674C589 674 614 689 614 722Z" stroke="rgb(164,198,243)" stroke-opacity="1" stroke-width="8" fill="rgb(164,198,243)" fill-opacity="1"></path></g></g></g><g><g><g><g><g transform="matrix(1,0,0,1,129.52499389648438,14.4875)"><path transform="matrix(0.0078,0,0,-0.0078,0,0)" d="M419 -4C421 -4 424 -3 424 0L424 31C424 33 422 36 419 36L387 36C297 36 298 45 298 79L298 640C298 665 296 670 271 670C270 670 269 670 268 669C208 607 121 606 89 606C87 606 84 605 84 602L84 571C84 569 86 566 89 566C109 566 163 566 216 590L216 79C216 46 217 36 127 36L95 36C93 36 90 34 90 31L90 0C90 -2 92 -4 95 -4C130 -1 217 -2 257 -2C297 -2 384 -1 419 -4Z" stroke="rgb(164,198,243)" stroke-opacity="1" stroke-width="8" fill="rgb(164,198,243)" fill-opacity="1"></path></g></g></g></g><g><g><g><g transform="matrix(1,0,0,1,130.0625,25.98749237060547)"><path transform="matrix(0.0078,0,0,-0.0078,0,0)" d="M334 420C334 436 318 436 302 436L220 436C255 572 260 592 260 599C260 619 245 630 226 630C222 630 192 629 182 591L143 436L53 436C34 436 18 435 18 412C18 395 32 396 51 396L133 396C63 118 58 100 58 81C58 25 99 -16 155 -16C261 -16 318 133 318 143C318 157 306 158 302 158C291 158 288 152 283 141C240 38 189 16 157 16C139 16 130 25 130 57C130 81 132 87 136 104L210 396L300 396C319 396 334 396 334 420Z" stroke="rgb(164,198,243)" stroke-opacity="1" stroke-width="8" fill="rgb(164,198,243)" fill-opacity="1"></path></g></g></g></g><line style="fill:none;stroke-width:0.8px;stroke:rgb(164, 198, 243);" x1="129.52499389648438" y1="18.312504589557648" x2="133.4249939918518" y2="18.312504589557648"></line></g><g><g transform="matrix(1,0,0,1,134.20001220703125,21.037496948242186)"><path transform="matrix(0.0104,0,0,-0.0104,0,0)" d="" stroke="rgb(164,198,243)" stroke-opacity="1" stroke-width="8" fill="rgb(164,198,243)" fill-opacity="1"></path></g></g><g><g transform="matrix(1,0,0,1,137.66250610351562,21.037496948242186)"><path transform="matrix(0.0104,0,0,-0.0104,0,0)" d="M376 118C376 100 376 100 365 83C336 36 292 16 251 16C208 16 173 40 150 77C125 117 122 173 122 214C122 251 124 310 152 354C172 384 209 416 261 416C295 416 335 402 365 358C376 341 376 341 376 323ZM527 -4C529 -4 532 -2 532 0L532 31C532 33 530 36 527 36C458 36 454 40 454 87L454 694C454 697 452 698 449 698L305 687C303 687 300 685 300 683L300 652C300 650 302 648 305 648C374 648 378 643 378 596L378 392C349 424 308 446 257 446C137 446 30 347 30 215C30 86 129 -16 246 -16C305 -16 349 13 376 43L376 -11C376 -14 377 -15 380 -15Z" stroke="rgb(164,198,243)" stroke-opacity="1" stroke-width="8" fill="rgb(164,198,243)" fill-opacity="1"></path></g></g><g><g transform="matrix(1,0,0,1,143.45001220703125,21.037496948242186)"><path transform="matrix(0.0104,0,0,-0.0104,0,0)" d="M334 420C334 436 318 436 302 436L220 436C255 572 260 592 260 599C260 619 245 630 226 630C222 630 192 629 182 591L143 436L53 436C34 436 18 435 18 412C18 395 32 396 51 396L133 396C63 118 58 100 58 81C58 25 99 -16 155 -16C261 -16 318 133 318 143C318 157 306 158 302 158C291 158 288 152 283 141C240 38 189 16 157 16C139 16 130 25 130 57C130 81 132 87 136 104L210 396L300 396C319 396 334 396 334 420Z" stroke="rgb(164,198,243)" stroke-opacity="1" stroke-width="8" fill="rgb(164,198,243)" fill-opacity="1"></path></g></g><g><g transform="matrix(1,0,0,1,147.21249389648438,21.037496948242186)"><path transform="matrix(0.0104,0,0,-0.0104,0,0)" d="M208 1C208 68 182 110 139 110C103 110 82 83 82 53C82 24 103 -4 139 -4C152 -4 165 0 176 9L176 1C176 -72 142 -131 110 -163C99 -174 98 -178 98 -182C98 -191 105 -198 112 -198C128 -198 208 -117 208 1Z" stroke="rgb(164,198,243)" stroke-opacity="1" stroke-width="8" fill="rgb(164,198,243)" fill-opacity="1"></path></g></g></g></g><g><g><g><g transform="matrix(1,0,0,1,166.78750610351562,21.037496948242186)"><path transform="matrix(0.0104,0,0,-0.0104,0,0)" d="M532 376C532 432 468 446 434 446C380 446 346 403 330 376C303 435 250 446 221 446C113 446 56 315 56 288C56 273 72 274 72 274C82 274 87 278 89 288C123 392 187 416 219 416C236 416 268 408 268 353C268 323 252 256 215 116C199 55 165 16 124 16C119 16 104 15 86 23C108 32 126 51 126 78C126 108 100 118 84 118C51 118 24 89 24 55C24 5 79 -16 123 -16C180 -16 215 33 227 54C242 19 278 -16 336 -16C443 -16 500 116 500 143C500 157 486 158 484 158C473 158 469 150 467 143C435 38 368 16 338 16C302 16 288 44 288 77C288 98 293 120 304 164L338 301C344 328 367 416 433 416C437 416 453 415 471 408C447 399 430 376 430 353C430 335 443 314 473 314C497 314 532 333 532 376Z" stroke="rgb(164,198,243)" stroke-opacity="1" stroke-width="8" fill="rgb(164,198,243)" fill-opacity="1"></path></g></g><g><g transform="matrix(1,0,0,1,175.85000610351562,21.037496948242186)"><path transform="matrix(0.0104,0,0,-0.0104,0,0)" d="M690 226C712 237 708 266 690 274L109 549C80 562 57 519 87 505L626 250L87 -5C57 -19 80 -62 109 -49Z" stroke="rgb(164,198,243)" stroke-opacity="1" stroke-width="8" fill="rgb(164,198,243)" fill-opacity="1"></path></g></g><g><g transform="matrix(1,0,0,1,187.0625,21.037496948242186)"><path transform="matrix(0.0104,0,0,-0.0104,0,0)" d="M419 -4C421 -4 424 -3 424 0L424 31C424 33 422 36 419 36L387 36C297 36 298 45 298 79L298 640C298 665 296 670 271 670C270 670 269 670 268 669C208 607 121 606 89 606C87 606 84 605 84 602L84 571C84 569 86 566 89 566C109 566 163 566 216 590L216 79C216 46 217 36 127 36L95 36C93 36 90 34 90 31L90 0C90 -2 92 -4 95 -4C130 -1 217 -2 257 -2C297 -2 384 -1 419 -4Z" stroke="rgb(164,198,243)" stroke-opacity="1" stroke-width="8" fill="rgb(164,198,243)" fill-opacity="1"></path></g></g></g></g><g><g><g><g transform="matrix(1,0,0,1,113.60000610351562,47.550001525878905)"><path transform="matrix(0.0104,0,0,-0.0104,0,0)" d="M726 250C726 263 715 274 702 274L76 274C63 274 52 263 52 250C52 237 63 226 76 226L702 226C715 226 726 237 726 250Z" stroke="rgb(238,140,153)" stroke-opacity="1" stroke-width="8" fill="rgb(238,140,153)" fill-opacity="1"></path></g></g><g><g><g><g><g transform="matrix(1,0,0,1,132.6875,37.29250457763672)"><path transform="matrix(0.00728,0,0,-0.00728,0,0)" d="M419 -4C421 -4 424 -3 424 0L424 31C424 33 422 36 419 36L387 36C297 36 298 45 298 79L298 640C298 665 296 670 271 670C270 670 269 670 268 669C208 607 121 606 89 606C87 606 84 605 84 602L84 571C84 569 86 566 89 566C109 566 163 566 216 590L216 79C216 46 217 36 127 36L95 36C93 36 90 34 90 31L90 0C90 -2 92 -4 95 -4C130 -1 217 -2 257 -2C297 -2 384 -1 419 -4Z" stroke="rgb(238,140,153)" stroke-opacity="1" stroke-width="8" fill="rgb(238,140,153)" fill-opacity="1"></path></g></g></g></g><g><g><g><g transform="matrix(1,0,0,1,128.17501831054688,54.27999237060547)"><path transform="matrix(0.00728,0,0,-0.00728,0,0)" d="M532 376C532 432 468 446 434 446C380 446 346 403 330 376C303 435 250 446 221 446C113 446 56 315 56 288C56 273 72 274 72 274C82 274 87 278 89 288C123 392 187 416 219 416C236 416 268 408 268 353C268 323 252 256 215 116C199 55 165 16 124 16C119 16 104 15 86 23C108 32 126 51 126 78C126 108 100 118 84 118C51 118 24 89 24 55C24 5 79 -16 123 -16C180 -16 215 33 227 54C242 19 278 -16 336 -16C443 -16 500 116 500 143C500 157 486 158 484 158C473 158 469 150 467 143C435 38 368 16 338 16C302 16 288 44 288 77C288 98 293 120 304 164L338 301C344 328 367 416 433 416C437 416 453 415 471 408C447 399 430 376 430 353C430 335 443 314 473 314C497 314 532 333 532 376Z" stroke="rgb(238,140,153)" stroke-opacity="1" stroke-width="8" fill="rgb(238,140,153)" fill-opacity="1"></path></g></g></g></g><g><g transform="matrix(1,0,0,1,121.70001220703125,47.62999618530274)"><path transform="matrix(0.0156,0,0,-0.0156,0,0)" d="M614 722C614 774 560 810 499 810C400 810 361 709 344 633C332 577 296 295 287 174L268 -75C255 -239 219 -280 166 -280C155 -280 132 -277 113 -265C136 -257 144 -236 144 -222C144 -190 119 -176 98 -176C76 -176 52 -190 52 -223C52 -275 105 -310 166 -310C264 -310 313 -220 335 -130C348 -77 384 214 392 325L411 574C425 758 459 778 500 778C509 778 532 777 553 764C530 756 522 735 522 721C522 689 546 674 567 674C589 674 614 689 614 722Z" stroke="rgb(238,140,153)" stroke-opacity="1" stroke-width="8" fill="rgb(238,140,153)" fill-opacity="1"></path></g></g></g><g><g><g><g><g transform="matrix(1,0,0,1,137.10000610351562,41.000004577636716)"><path transform="matrix(0.0078,0,0,-0.0078,0,0)" d="M419 -4C421 -4 424 -3 424 0L424 31C424 33 422 36 419 36L387 36C297 36 298 45 298 79L298 640C298 665 296 670 271 670C270 670 269 670 268 669C208 607 121 606 89 606C87 606 84 605 84 602L84 571C84 569 86 566 89 566C109 566 163 566 216 590L216 79C216 46 217 36 127 36L95 36C93 36 90 34 90 31L90 0C90 -2 92 -4 95 -4C130 -1 217 -2 257 -2C297 -2 384 -1 419 -4Z" stroke="rgb(238,140,153)" stroke-opacity="1" stroke-width="8" fill="rgb(238,140,153)" fill-opacity="1"></path></g></g></g></g><g><g><g><g transform="matrix(1,0,0,1,137.63751220703125,52.500004577636716)"><path transform="matrix(0.0078,0,0,-0.0078,0,0)" d="M334 420C334 436 318 436 302 436L220 436C255 572 260 592 260 599C260 619 245 630 226 630C222 630 192 629 182 591L143 436L53 436C34 436 18 435 18 412C18 395 32 396 51 396L133 396C63 118 58 100 58 81C58 25 99 -16 155 -16C261 -16 318 133 318 143C318 157 306 158 302 158C291 158 288 152 283 141C240 38 189 16 157 16C139 16 130 25 130 57C130 81 132 87 136 104L210 396L300 396C319 396 334 396 334 420Z" stroke="rgb(238,140,153)" stroke-opacity="1" stroke-width="8" fill="rgb(238,140,153)" fill-opacity="1"></path></g></g></g></g><line style="fill:none;stroke-width:0.8px;stroke:rgb(238, 140, 153);" x1="137.10000610351562" y1="44.825001537799835" x2="141.00000619888306" y2="44.825001537799835"></line></g><g><g transform="matrix(1,0,0,1,141.77499389648438,47.550001525878905)"><path transform="matrix(0.0104,0,0,-0.0104,0,0)" d="" stroke="rgb(238,140,153)" stroke-opacity="1" stroke-width="8" fill="rgb(238,140,153)" fill-opacity="1"></path></g></g><g><g transform="matrix(1,0,0,1,145.23751831054688,47.550001525878905)"><path transform="matrix(0.0104,0,0,-0.0104,0,0)" d="M376 118C376 100 376 100 365 83C336 36 292 16 251 16C208 16 173 40 150 77C125 117 122 173 122 214C122 251 124 310 152 354C172 384 209 416 261 416C295 416 335 402 365 358C376 341 376 341 376 323ZM527 -4C529 -4 532 -2 532 0L532 31C532 33 530 36 527 36C458 36 454 40 454 87L454 694C454 697 452 698 449 698L305 687C303 687 300 685 300 683L300 652C300 650 302 648 305 648C374 648 378 643 378 596L378 392C349 424 308 446 257 446C137 446 30 347 30 215C30 86 129 -16 246 -16C305 -16 349 13 376 43L376 -11C376 -14 377 -15 380 -15Z" stroke="rgb(238,140,153)" stroke-opacity="1" stroke-width="8" fill="rgb(238,140,153)" fill-opacity="1"></path></g></g><g><g transform="matrix(1,0,0,1,151.02499389648438,47.550001525878905)"><path transform="matrix(0.0104,0,0,-0.0104,0,0)" d="M334 420C334 436 318 436 302 436L220 436C255 572 260 592 260 599C260 619 245 630 226 630C222 630 192 629 182 591L143 436L53 436C34 436 18 435 18 412C18 395 32 396 51 396L133 396C63 118 58 100 58 81C58 25 99 -16 155 -16C261 -16 318 133 318 143C318 157 306 158 302 158C291 158 288 152 283 141C240 38 189 16 157 16C139 16 130 25 130 57C130 81 132 87 136 104L210 396L300 396C319 396 334 396 334 420Z" stroke="rgb(238,140,153)" stroke-opacity="1" stroke-width="8" fill="rgb(238,140,153)" fill-opacity="1"></path></g></g><g><g transform="matrix(1,0,0,1,154.78750610351562,47.550001525878905)"><path transform="matrix(0.0104,0,0,-0.0104,0,0)" d="M208 1C208 68 182 110 139 110C103 110 82 83 82 53C82 24 103 -4 139 -4C152 -4 165 0 176 9L176 1C176 -72 142 -131 110 -163C99 -174 98 -178 98 -182C98 -191 105 -198 112 -198C128 -198 208 -117 208 1Z" stroke="rgb(238,140,153)" stroke-opacity="1" stroke-width="8" fill="rgb(238,140,153)" fill-opacity="1"></path></g></g></g></g><g><g><g><g transform="matrix(1,0,0,1,166.78750610351562,47.550001525878905)"><path transform="matrix(0.0104,0,0,-0.0104,0,0)" d="M372 332C372 257 373 190 362 126C347 33 292 4 249 4C212 4 155 28 137 122C126 181 126 273 126 332C126 396 126 462 134 515C153 631 225 640 249 640C280 640 344 623 363 526C373 471 372 395 372 332ZM464 320C464 400 459 481 424 556C377 654 293 670 250 670C189 670 114 644 72 549C40 479 34 400 34 320C34 245 38 154 80 77C124 -6 199 -26 249 -26C304 -26 382 -5 427 92C459 162 464 241 464 320Z" stroke="rgb(238,140,153)" stroke-opacity="1" stroke-width="8" fill="rgb(238,140,153)" fill-opacity="1"></path></g></g><g><g transform="matrix(1,0,0,1,175.10000610351562,47.550001525878905)"><path transform="matrix(0.0104,0,0,-0.0104,0,0)" d="M691 -5L152 250L691 505C721 519 698 562 669 549L88 274C66 263 70 234 88 226L669 -49C698 -62 721 -19 691 -5Z" stroke="rgb(238,140,153)" stroke-opacity="1" stroke-width="8" fill="rgb(238,140,153)" fill-opacity="1"></path></g></g><g><g transform="matrix(1,0,0,1,186.3125,47.550001525878905)"><path transform="matrix(0.0104,0,0,-0.0104,0,0)" d="M532 376C532 432 468 446 434 446C380 446 346 403 330 376C303 435 250 446 221 446C113 446 56 315 56 288C56 273 72 274 72 274C82 274 87 278 89 288C123 392 187 416 219 416C236 416 268 408 268 353C268 323 252 256 215 116C199 55 165 16 124 16C119 16 104 15 86 23C108 32 126 51 126 78C126 108 100 118 84 118C51 118 24 89 24 55C24 5 79 -16 123 -16C180 -16 215 33 227 54C242 19 278 -16 336 -16C443 -16 500 116 500 143C500 157 486 158 484 158C473 158 469 150 467 143C435 38 368 16 338 16C302 16 288 44 288 77C288 98 293 120 304 164L338 301C344 328 367 416 433 416C437 416 453 415 471 408C447 399 430 376 430 353C430 335 443 314 473 314C497 314 532 333 532 376Z" stroke="rgb(238,140,153)" stroke-opacity="1" stroke-width="8" fill="rgb(238,140,153)" fill-opacity="1"></path></g></g><g><g transform="matrix(1,0,0,1,195.375,47.550001525878905)"><path transform="matrix(0.0104,0,0,-0.0104,0,0)" d="M691 -5L152 250L691 505C721 519 698 562 669 549L88 274C66 263 70 234 88 226L669 -49C698 -62 721 -19 691 -5Z" stroke="rgb(238,140,153)" stroke-opacity="1" stroke-width="8" fill="rgb(238,140,153)" fill-opacity="1"></path></g></g><g><g transform="matrix(1,0,0,1,206.58749389648438,47.550001525878905)"><path transform="matrix(0.0104,0,0,-0.0104,0,0)" d="M419 -4C421 -4 424 -3 424 0L424 31C424 33 422 36 419 36L387 36C297 36 298 45 298 79L298 640C298 665 296 670 271 670C270 670 269 670 268 669C208 607 121 606 89 606C87 606 84 605 84 602L84 571C84 569 86 566 89 566C109 566 163 566 216 590L216 79C216 46 217 36 127 36L95 36C93 36 90 34 90 31L90 0C90 -2 92 -4 95 -4C130 -1 217 -2 257 -2C297 -2 384 -1 419 -4Z" stroke="rgb(238,140,153)" stroke-opacity="1" stroke-width="8" fill="rgb(238,140,153)" fill-opacity="1"></path></g></g></g></g><svg x="105.52500915527344" overflow="visible" y="2.6999969482421875" height="53.82500076293945" width="5.200000286102295"><path d=" M 4.40 1.22 c 0.00 -0.10 -0.10 -0.18 -0.23 -0.18 c -0.03 0.00 -0.05 0.01 -0.08 0.01 c -1.46 0.42 -2.08 1.54 -2.08 2.59 v 0.14 h 0.88 v -0.14 c 0.00 -0.85 0.16 -1.90 1.35 -2.25 c 0.09 -0.02 0.15 -0.09 0.15 -0.17 z  M 1.99 3.78 v 20.43 h 0.88 v -20.43 z  M 2.87 29.62 v -0.10 c 0.00 -1.02 -0.52 -2.08 -1.78 -2.60 c 1.26 -0.52 1.78 -1.58 1.78 -2.60 v -0.10 h -0.88 v 0.10 c 0.00 0.95 -0.32 2.08 -1.53 2.43 c -0.09 0.02 -0.15 0.09 -0.15 0.17 s 0.06 0.15 0.15 0.17 c 1.20 0.35 1.53 1.48 1.53 2.43 v 0.10 h 0.88 z  M 1.99 29.62 v 20.43 h 0.88 v -20.43 z" style="fill:rgb(164,198,243);fill-opacity:1;stroke-width:1px;stroke:none;stroke-opacity:1;"></path><path d=" M 4.40 52.60 c 0.00 0.10 -0.10 0.18 -0.23 0.18 c -0.03 0.00 -0.05 -0.01 -0.08 -0.01 c -1.46 -0.42 -2.08 -1.54 -2.08 -2.59 v -0.14 h 0.88 v 0.14 c 0.00 0.85 0.16 1.90 1.35 2.25 c 0.09 0.02 0.15 0.09 0.15 0.17 z" style="fill:rgb(164,198,243);fill-opacity:1;stroke-width:1px;stroke:none;stroke-opacity:1;"></path></svg></g></g></g><g><g><g><g transform="matrix(1,0,0,1,19.962509155273438,137.5999984741211)"><path transform="matrix(0.013,0,0,-0.013,0,0)" d="M532 376C532 432 468 446 434 446C380 446 346 403 330 376C303 435 250 446 221 446C113 446 56 315 56 288C56 273 72 274 72 274C82 274 87 278 89 288C123 392 187 416 219 416C236 416 268 408 268 353C268 323 252 256 215 116C199 55 165 16 124 16C119 16 104 15 86 23C108 32 126 51 126 78C126 108 100 118 84 118C51 118 24 89 24 55C24 5 79 -16 123 -16C180 -16 215 33 227 54C242 19 278 -16 336 -16C443 -16 500 116 500 143C500 157 486 158 484 158C473 158 469 150 467 143C435 38 368 16 338 16C302 16 288 44 288 77C288 98 293 120 304 164L338 301C344 328 367 416 433 416C437 416 453 415 471 408C447 399 430 376 430 353C430 335 443 314 473 314C497 314 532 333 532 376Z" stroke="rgb(238,140,153)" stroke-opacity="1" stroke-width="8" fill="rgb(238,140,153)" fill-opacity="1"></path></g></g></g></g></svg>
</svg>
